<svg xmlns="http://www.w3.org/2000/svg" width="1920" height="1080"><path d="M1061,569L1136,724L1304,480Z" fill="#2fbbd1" stroke="#2fbbd1" stroke-width="1.51"/><path d="M1136,724L1387,807L1304,480Z" fill="#2fbdd1" stroke="#2fbdd1" stroke-width="1.51"/><path d="M1304,480L1155,194L1061,569Z" fill="#2fb9d1" stroke="#2fb9d1" stroke-width="1.51"/><path d="M1622,321L1438,286L1304,480Z" fill="#2ebad2" stroke="#2ebad2" stroke-width="1.51"/><path d="M1438,286L1155,194L1304,480Z" fill="#2eb8d1" stroke="#2eb8d1" stroke-width="1.51"/><path d="M1387,807L1609,646L1304,480Z" fill="#2fbed2" stroke="#2fbed2" stroke-width="1.51"/><path d="M1061,569L779,786L1136,724Z" fill="#2fbbd1" stroke="#2fbbd1" stroke-width="1.51"/><path d="M1022,1132L1408,1098L1387,807Z" fill="#2ec3d2" stroke="#2ec3d2" stroke-width="1.51"/><path d="M896,257L766,640L1061,569Z" fill="#2fb7d1" stroke="#2fb7d1" stroke-width="1.51"/><path d="M1155,194L896,257L1061,569Z" fill="#2fb6d1" stroke="#2fb6d1" stroke-width="1.51"/><path d="M766,640L779,786L1061,569Z" fill="#2fbad1" stroke="#2fbad1" stroke-width="1.51"/><path d="M1438,286L1291,-94L1155,194Z" fill="#2fb5d1" stroke="#2fb5d1" stroke-width="1.51"/><path d="M1609,646L1622,321L1304,480Z" fill="#2fbdd2" stroke="#2fbdd2" stroke-width="1.51"/><path d="M779,786L910,1047L1136,724Z" fill="#2fbed2" stroke="#2fbed2" stroke-width="1.51"/><path d="M1022,1132L1387,807L1136,724Z" fill="#2fc0d2" stroke="#2fc0d2" stroke-width="1.51"/><path d="M1387,807L1733,825L1609,646Z" fill="#2ec2d2" stroke="#2ec2d2" stroke-width="1.51"/><path d="M910,1047L1022,1132L1136,724Z" fill="#2fc0d2" stroke="#2fc0d2" stroke-width="1.51"/><path d="M1408,1098L1733,825L1387,807Z" fill="#2ec4d2" stroke="#2ec4d2" stroke-width="1.51"/><path d="M1998,437L1931,295L1622,321Z" fill="#2ebed2" stroke="#2ebed2" stroke-width="1.51"/><path d="M896,257L557,573L766,640Z" fill="#2fb6d1" stroke="#2fb6d1" stroke-width="1.51"/><path d="M766,640L486,754L779,786Z" fill="#2eb9d1" stroke="#2eb9d1" stroke-width="1.51"/><path d="M779,786L512,1191L910,1047Z" fill="#2fbed2" stroke="#2fbed2" stroke-width="1.51"/><path d="M896,257L434,178L557,573Z" fill="#2eb2d1" stroke="#2eb2d1" stroke-width="1.51"/><path d="M1155,194L831,48L896,257Z" fill="#2fb3d1" stroke="#2fb3d1" stroke-width="1.51"/><path d="M1045,-81L831,48L1155,194Z" fill="#2eb2d1" stroke="#2eb2d1" stroke-width="1.51"/><path d="M1742,13L1291,-94L1438,286Z" fill="#2eb6d1" stroke="#2eb6d1" stroke-width="1.51"/><path d="M1291,-94L1045,-81L1155,194Z" fill="#2fb2d1" stroke="#2fb2d1" stroke-width="1.51"/><path d="M557,573L486,754L766,640Z" fill="#2fb8d1" stroke="#2fb8d1" stroke-width="1.51"/><path d="M910,1047L817,1337L1022,1132Z" fill="#2ec1d2" stroke="#2ec1d2" stroke-width="1.51"/><path d="M1640,1387L1709,1180L1408,1098Z" fill="#2ec7d2" stroke="#2ec7d2" stroke-width="1.51"/><path d="M1408,1098L1709,1180L1733,825Z" fill="#2ec7d2" stroke="#2ec7d2" stroke-width="1.51"/><path d="M1709,1180L1931,878L1733,825Z" fill="#2ec7d2" stroke="#2ec7d2" stroke-width="1.51"/><path d="M1998,437L1622,321L1609,646Z" fill="#2fbfd2" stroke="#2fbfd2" stroke-width="1.51"/><path d="M1622,321L1742,13L1438,286Z" fill="#2fb9d1" stroke="#2fb9d1" stroke-width="1.51"/><path d="M1998,437L1609,646L1733,825Z" fill="#2ec1d2" stroke="#2ec1d2" stroke-width="1.51"/><path d="M1931,295L1742,13L1622,321Z" fill="#2fbbd1" stroke="#2fbbd1" stroke-width="1.51"/><path d="M1022,1132L1358,1369L1408,1098Z" fill="#2ec4d2" stroke="#2ec4d2" stroke-width="1.51"/><path d="M1206,1440L1358,1369L1022,1132Z" fill="#2ec3d2" stroke="#2ec3d2" stroke-width="1.51"/><path d="M1931,878L1998,437L1733,825Z" fill="#2ec3d2" stroke="#2ec3d2" stroke-width="1.51"/><path d="M512,1191L817,1337L910,1047Z" fill="#2fbfd2" stroke="#2fbfd2" stroke-width="1.51"/><path d="M817,1337L1206,1440L1022,1132Z" fill="#2ec2d2" stroke="#2ec2d2" stroke-width="1.51"/><path d="M1045,-81L791,-348L831,48Z" fill="#2eb0d1" stroke="#2eb0d1" stroke-width="1.51"/><path d="M1291,-94L1090,-259L1045,-81Z" fill="#2fb2d1" stroke="#2fb2d1" stroke-width="1.51"/><path d="M1304,-433L1090,-259L1291,-94Z" fill="#2fb3d1" stroke="#2fb3d1" stroke-width="1.51"/><path d="M557,573L206,478L486,754Z" fill="#2fb5d1" stroke="#2fb5d1" stroke-width="1.51"/><path d="M831,48L434,178L896,257Z" fill="#2fb1d1" stroke="#2fb1d1" stroke-width="1.51"/><path d="M547,-108L434,178L831,48Z" fill="#2eaed1" stroke="#2eaed1" stroke-width="1.51"/><path d="M1677,-413L1304,-433L1291,-94Z" fill="#2eb4d1" stroke="#2eb4d1" stroke-width="1.51"/><path d="M1931,295L1880,-4L1742,13Z" fill="#2fbad1" stroke="#2fbad1" stroke-width="1.51"/><path d="M2262,172L1880,-4L1931,295Z" fill="#2fbbd1" stroke="#2fbbd1" stroke-width="1.51"/><path d="M1206,1440L1640,1387L1358,1369Z" fill="#2ec5d2" stroke="#2ec5d2" stroke-width="1.51"/><path d="M1358,1369L1640,1387L1408,1098Z" fill="#2ec6d2" stroke="#2ec6d2" stroke-width="1.51"/><path d="M1709,1180L1889,1198L1931,878Z" fill="#2dc9d2" stroke="#2dc9d2" stroke-width="1.51"/><path d="M1640,1387L1889,1198L1709,1180Z" fill="#2ec8d2" stroke="#2ec8d2" stroke-width="1.51"/><path d="M1931,878L2199,755L1998,437Z" fill="#2ec4d2" stroke="#2ec4d2" stroke-width="1.51"/><path d="M317,926L512,1191L486,754Z" fill="#2fbbd2" stroke="#2fbbd2" stroke-width="1.51"/><path d="M486,754L512,1191L779,786Z" fill="#2fbbd2" stroke="#2fbbd2" stroke-width="1.51"/><path d="M206,478L317,926L486,754Z" fill="#2eb6d1" stroke="#2eb6d1" stroke-width="1.51"/><path d="M791,-348L547,-108L831,48Z" fill="#2eaed1" stroke="#2eaed1" stroke-width="1.51"/><path d="M1998,437L2262,172L1931,295Z" fill="#2ebdd2" stroke="#2ebdd2" stroke-width="1.51"/><path d="M2355,1125L2199,755L1931,878Z" fill="#2ec7d2" stroke="#2ec7d2" stroke-width="1.51"/><path d="M434,178L206,478L557,573Z" fill="#2fb2d1" stroke="#2fb2d1" stroke-width="1.51"/><path d="M223,186L206,478L434,178Z" fill="#2eafd1" stroke="#2eafd1" stroke-width="1.51"/><path d="M1090,-259L791,-348L1045,-81Z" fill="#2eb0d1" stroke="#2eb0d1" stroke-width="1.51"/><path d="M1677,-413L1291,-94L1742,13Z" fill="#2fb6d1" stroke="#2fb6d1" stroke-width="1.51"/><path d="M1090,-259L1304,-433L791,-348Z" fill="#2fb1d1" stroke="#2fb1d1" stroke-width="1.51"/><path d="M158,-56L434,178L547,-108Z" fill="#2eabd0" stroke="#2eabd0" stroke-width="1.51"/><path d="M158,-56L223,186L434,178Z" fill="#2eacd0" stroke="#2eacd0" stroke-width="1.51"/><path d="M2199,755L2274,581L1998,437Z" fill="#2ec2d2" stroke="#2ec2d2" stroke-width="1.51"/><path d="M512,1191L427,1364L817,1337Z" fill="#2ebed2" stroke="#2ebed2" stroke-width="1.51"/><path d="M817,1337L427,1364L1206,1440Z" fill="#2fc0d2" stroke="#2fc0d2" stroke-width="1.51"/><path d="M268,1364L427,1364L512,1191Z" fill="#2fbcd1" stroke="#2fbcd1" stroke-width="1.51"/><path d="M1879,-342L1742,13L1880,-4Z" fill="#2eb8d1" stroke="#2eb8d1" stroke-width="1.51"/><path d="M1879,-342L1677,-413L1742,13Z" fill="#2fb7d1" stroke="#2fb7d1" stroke-width="1.51"/><path d="M2274,581L2262,172L1998,437Z" fill="#2fbfd2" stroke="#2fbfd2" stroke-width="1.51"/><path d="M2218,-85L1879,-342L1880,-4Z" fill="#2fb9d1" stroke="#2fb9d1" stroke-width="1.51"/><path d="M-15,163L22,513L206,478Z" fill="#2eaed1" stroke="#2eaed1" stroke-width="1.51"/><path d="M206,478L22,513L317,926Z" fill="#2fb3d1" stroke="#2fb3d1" stroke-width="1.51"/><path d="M317,926L134,1126L512,1191Z" fill="#2fbcd1" stroke="#2fbcd1" stroke-width="1.51"/><path d="M-103,876L134,1126L317,926Z" fill="#2fb8d1" stroke="#2fb8d1" stroke-width="1.51"/><path d="M427,1364L-244,1417L1206,1440Z" fill="#2fbdd2" stroke="#2fbdd2" stroke-width="1.51"/><path d="M134,1126L268,1364L512,1191Z" fill="#2fbbd1" stroke="#2fbbd1" stroke-width="1.51"/><path d="M2262,172L2218,-85L1880,-4Z" fill="#2fb9d1" stroke="#2fb9d1" stroke-width="1.51"/><path d="M420,-390L158,-56L547,-108Z" fill="#2eabd0" stroke="#2eabd0" stroke-width="1.51"/><path d="M223,186L-15,163L206,478Z" fill="#2eadd1" stroke="#2eadd1" stroke-width="1.51"/><path d="M1889,1198L2355,1125L1931,878Z" fill="#2dcad2" stroke="#2dcad2" stroke-width="1.51"/><path d="M2199,755L2355,1125L2274,581Z" fill="#2ec6d2" stroke="#2ec6d2" stroke-width="1.51"/><path d="M1640,1387L2060,1496L1889,1198Z" fill="#2dc9d2" stroke="#2dc9d2" stroke-width="1.51"/><path d="M1206,1440L2060,1496L1640,1387Z" fill="#2ec7d2" stroke="#2ec7d2" stroke-width="1.51"/><path d="M791,-348L420,-390L547,-108Z" fill="#2eadd1" stroke="#2eadd1" stroke-width="1.51"/><path d="M1304,-433L420,-390L791,-348Z" fill="#2eafd1" stroke="#2eafd1" stroke-width="1.51"/><path d="M2180,1426L2355,1125L1889,1198Z" fill="#2dcad2" stroke="#2dcad2" stroke-width="1.51"/><path d="M2274,581L2331,-302L2262,172Z" fill="#2fbbd1" stroke="#2fbbd1" stroke-width="1.51"/><path d="M2060,1496L2180,1426L1889,1198Z" fill="#2dcad2" stroke="#2dcad2" stroke-width="1.51"/><path d="M158,-56L-15,163L223,186Z" fill="#2eaad0" stroke="#2eaad0" stroke-width="1.51"/><path d="M-90,-85L-15,163L158,-56Z" fill="#2da8d0" stroke="#2da8d0" stroke-width="1.51"/><path d="M134,1126L-157,1344L268,1364Z" fill="#2fb9d1" stroke="#2fb9d1" stroke-width="1.51"/><path d="M22,513L-103,876L317,926Z" fill="#2eb4d1" stroke="#2eb4d1" stroke-width="1.51"/><path d="M-245,784L-103,876L22,513Z" fill="#2eb3d1" stroke="#2eb3d1" stroke-width="1.51"/><path d="M-103,876L-89,1131L134,1126Z" fill="#2fb8d1" stroke="#2fb8d1" stroke-width="1.51"/><path d="M420,-390L148,-354L158,-56Z" fill="#2eaad0" stroke="#2eaad0" stroke-width="1.51"/><path d="M2262,172L2331,-302L2218,-85Z" fill="#2fb9d1" stroke="#2fb9d1" stroke-width="1.51"/><path d="M2218,-85L2331,-302L1879,-342Z" fill="#2fb9d1" stroke="#2fb9d1" stroke-width="1.51"/><path d="M1879,-342L2331,-302L1677,-413Z" fill="#2fb9d1" stroke="#2fb9d1" stroke-width="1.51"/><path d="M2355,1125L2331,-302L2274,581Z" fill="#2fc0d2" stroke="#2fc0d2" stroke-width="1.51"/><path d="M-382,612L-245,784L22,513Z" fill="#2fb2d1" stroke="#2fb2d1" stroke-width="1.51"/><path d="M24,-343L-90,-85L158,-56Z" fill="#2da8d0" stroke="#2da8d0" stroke-width="1.51"/><path d="M-103,876L-430,1183L-89,1131Z" fill="#2fb8d1" stroke="#2fb8d1" stroke-width="1.51"/><path d="M-304,170L22,513L-15,163Z" fill="#2eacd1" stroke="#2eacd1" stroke-width="1.51"/><path d="M420,-390L24,-343L148,-354Z" fill="#2ea9d0" stroke="#2ea9d0" stroke-width="1.51"/><path d="M148,-354L24,-343L158,-56Z" fill="#2da9d0" stroke="#2da9d0" stroke-width="1.51"/><path d="M-244,1417L-157,1344L-430,1183Z" fill="#2fb9d1" stroke="#2fb9d1" stroke-width="1.51"/><path d="M-89,1131L-157,1344L134,1126Z" fill="#2fb9d1" stroke="#2fb9d1" stroke-width="1.51"/><path d="M268,1364L-244,1417L427,1364Z" fill="#2ebad1" stroke="#2ebad1" stroke-width="1.51"/><path d="M-329,70L-15,163L-90,-85Z" fill="#2da9d0" stroke="#2da9d0" stroke-width="1.51"/><path d="M-329,70L-304,170L-15,163Z" fill="#2eaad0" stroke="#2eaad0" stroke-width="1.51"/><path d="M-430,1183L-157,1344L-89,1131Z" fill="#2fb9d1" stroke="#2fb9d1" stroke-width="1.51"/><path d="M-304,170L-382,612L22,513Z" fill="#2eaed1" stroke="#2eaed1" stroke-width="1.51"/><path d="M-304,170L-329,70L-382,612Z" fill="#2eacd1" stroke="#2eacd1" stroke-width="1.51"/><path d="M-273,-260L-329,70L-90,-85Z" fill="#2da8d0" stroke="#2da8d0" stroke-width="1.51"/><path d="M-430,1183L-103,876L-245,784Z" fill="#2fb7d1" stroke="#2fb7d1" stroke-width="1.51"/><path d="M-157,1344L-244,1417L268,1364Z" fill="#2fb9d1" stroke="#2fb9d1" stroke-width="1.51"/><path d="M1206,1440L-244,1417L2060,1496Z" fill="#2ec2d2" stroke="#2ec2d2" stroke-width="1.51"/><path d="M24,-343L-273,-260L-90,-85Z" fill="#2da8d0" stroke="#2da8d0" stroke-width="1.51"/><path d="M-382,612L-430,1183L-245,784Z" fill="#2fb5d1" stroke="#2fb5d1" stroke-width="1.51"/></svg>