<svg xmlns="http://www.w3.org/2000/svg" width="1920" height="1080"><path d="M988,560L1242,876L1294,489Z" fill="#22758f" stroke="#22758f" stroke-width="1.51"/><path d="M988,560L1042,916L1242,876Z" fill="#21728a" stroke="#21728a" stroke-width="1.51"/><path d="M1294,489L1324,273L988,560Z" fill="#237d98" stroke="#237d98" stroke-width="1.51"/><path d="M1713,501L1324,273L1294,489Z" fill="#227893" stroke="#227893" stroke-width="1.51"/><path d="M1242,876L1551,992L1294,489Z" fill="#1f6b83" stroke="#1f6b83" stroke-width="1.51"/><path d="M1262,1306L1551,992L1242,876Z" fill="#1c6177" stroke="#1c6177" stroke-width="1.51"/><path d="M1551,992L1713,501L1294,489Z" fill="#206d85" stroke="#206d85" stroke-width="1.51"/><path d="M1042,916L1262,1306L1242,876Z" fill="#1e667c" stroke="#1e667c" stroke-width="1.51"/><path d="M620,877L927,1179L1042,916Z" fill="#206f87" stroke="#206f87" stroke-width="1.51"/><path d="M1324,273L924,144L988,560Z" fill="#2584a1" stroke="#2584a1" stroke-width="1.51"/><path d="M988,560L620,877L1042,916Z" fill="#227690" stroke="#227690" stroke-width="1.51"/><path d="M563,599L620,877L988,560Z" fill="#247e99" stroke="#247e99" stroke-width="1.51"/><path d="M702,194L563,599L988,560Z" fill="#2687a4" stroke="#2687a4" stroke-width="1.51"/><path d="M927,1179L1262,1306L1042,916Z" fill="#1e667d" stroke="#1e667d" stroke-width="1.51"/><path d="M924,144L702,194L988,560Z" fill="#278ba8" stroke="#278ba8" stroke-width="1.51"/><path d="M1713,501L1736,276L1324,273Z" fill="#227892" stroke="#227892" stroke-width="1.51"/><path d="M1324,273L912,-86L924,144Z" fill="#288ead" stroke="#288ead" stroke-width="1.51"/><path d="M1551,992L2044,840L1713,501Z" fill="#1d6279" stroke="#1d6279" stroke-width="1.51"/><path d="M1713,501L2014,469L1736,276Z" fill="#207088" stroke="#207088" stroke-width="1.51"/><path d="M1262,1306L1684,1177L1551,992Z" fill="#1c5d72" stroke="#1c5d72" stroke-width="1.51"/><path d="M957,1598L1296,1589L1262,1306Z" fill="#1d647a" stroke="#1d647a" stroke-width="1.51"/><path d="M620,877L624,1171L927,1179Z" fill="#206e86" stroke="#206e86" stroke-width="1.51"/><path d="M324,1270L624,1171L620,877Z" fill="#21738c" stroke="#21738c" stroke-width="1.51"/><path d="M924,144L912,-86L702,194Z" fill="#2994b3" stroke="#2994b3" stroke-width="1.51"/><path d="M1347,-249L912,-86L1324,273Z" fill="#2890ae" stroke="#2890ae" stroke-width="1.51"/><path d="M563,599L291,795L620,877Z" fill="#24809c" stroke="#24809c" stroke-width="1.51"/><path d="M702,194L333,508L563,599Z" fill="#278dab" stroke="#278dab" stroke-width="1.51"/><path d="M199,192L333,508L702,194Z" fill="#2995b5" stroke="#2995b5" stroke-width="1.51"/><path d="M1684,1177L1908,1121L1551,992Z" fill="#1a586c" stroke="#1a586c" stroke-width="1.51"/><path d="M2099,1491L1908,1121L1684,1177Z" fill="#195467" stroke="#195467" stroke-width="1.51"/><path d="M2044,840L2014,469L1713,501Z" fill="#1e667d" stroke="#1e667d" stroke-width="1.51"/><path d="M1908,1121L2044,840L1551,992Z" fill="#1b596d" stroke="#1b596d" stroke-width="1.51"/><path d="M333,508L291,795L563,599Z" fill="#2688a5" stroke="#2688a5" stroke-width="1.51"/><path d="M1262,1306L1557,1667L1684,1177Z" fill="#1c5d72" stroke="#1c5d72" stroke-width="1.51"/><path d="M957,1598L1262,1306L927,1179Z" fill="#1e677e" stroke="#1e677e" stroke-width="1.51"/><path d="M1573,-206L1347,-249L1324,273Z" fill="#278aa8" stroke="#278aa8" stroke-width="1.51"/><path d="M1573,-206L1324,273L1736,276Z" fill="#25829e" stroke="#25829e" stroke-width="1.51"/><path d="M2014,469L2003,232L1736,276Z" fill="#21718a" stroke="#21718a" stroke-width="1.51"/><path d="M2292,488L2003,232L2014,469Z" fill="#206e87" stroke="#206e87" stroke-width="1.51"/><path d="M653,1641L957,1598L927,1179Z" fill="#1f6c83" stroke="#1f6c83" stroke-width="1.51"/><path d="M653,1641L927,1179L624,1171Z" fill="#206e86" stroke="#206e86" stroke-width="1.51"/><path d="M1914,-90L1573,-206L1736,276Z" fill="#25839f" stroke="#25839f" stroke-width="1.51"/><path d="M291,795L324,1270L620,877Z" fill="#237993" stroke="#237993" stroke-width="1.51"/><path d="M2003,232L1914,-90L1736,276Z" fill="#227a94" stroke="#227a94" stroke-width="1.51"/><path d="M1296,1589L1557,1667L1262,1306Z" fill="#1c6075" stroke="#1c6075" stroke-width="1.51"/><path d="M1195,1870L1557,1667L1296,1589Z" fill="#1c6076" stroke="#1c6076" stroke-width="1.51"/><path d="M912,-86L596,-240L702,194Z" fill="#2a9abb" stroke="#2a9abb" stroke-width="1.51"/><path d="M864,-475L596,-240L912,-86Z" fill="#2a99b9" stroke="#2a99b9" stroke-width="1.51"/><path d="M333,508L-108,442L291,795Z" fill="#288fae" stroke="#288fae" stroke-width="1.51"/><path d="M-66,1500L304,1634L324,1270Z" fill="#237a95" stroke="#237a95" stroke-width="1.51"/><path d="M175,-67L199,192L702,194Z" fill="#2b9fc0" stroke="#2b9fc0" stroke-width="1.51"/><path d="M957,1598L1195,1870L1296,1589Z" fill="#1e657b" stroke="#1e657b" stroke-width="1.51"/><path d="M324,1270L653,1641L624,1171Z" fill="#21728c" stroke="#21728c" stroke-width="1.51"/><path d="M2044,840L2292,488L2014,469Z" fill="#1e677d" stroke="#1e677d" stroke-width="1.51"/><path d="M2003,232L2258,85L1914,-90Z" fill="#237b96" stroke="#237b96" stroke-width="1.51"/><path d="M2448,780L2292,488L2044,840Z" fill="#1d6278" stroke="#1d6278" stroke-width="1.51"/><path d="M1607,-439L1347,-249L1573,-206Z" fill="#2688a5" stroke="#2688a5" stroke-width="1.51"/><path d="M1219,-562L864,-475L1347,-249Z" fill="#2891af" stroke="#2891af" stroke-width="1.51"/><path d="M1347,-249L864,-475L912,-86Z" fill="#2993b2" stroke="#2993b2" stroke-width="1.51"/><path d="M1914,-90L1607,-439L1573,-206Z" fill="#2584a0" stroke="#2584a0" stroke-width="1.51"/><path d="M914,2004L1195,1870L957,1598Z" fill="#1e687e" stroke="#1e687e" stroke-width="1.51"/><path d="M1914,-90L2104,-534L1607,-439Z" fill="#24809b" stroke="#24809b" stroke-width="1.51"/><path d="M2292,488L2258,85L2003,232Z" fill="#21748d" stroke="#21748d" stroke-width="1.51"/><path d="M1607,-439L1219,-562L1347,-249Z" fill="#278ba9" stroke="#278ba9" stroke-width="1.51"/><path d="M2320,1283L2448,780L2044,840Z" fill="#1a586c" stroke="#1a586c" stroke-width="1.51"/><path d="M1557,1667L2099,1491L1684,1177Z" fill="#1a576a" stroke="#1a576a" stroke-width="1.51"/><path d="M1704,1921L2099,1491L1557,1667Z" fill="#1a576a" stroke="#1a576a" stroke-width="1.51"/><path d="M209,-436L175,-67L596,-240Z" fill="#2da4c6" stroke="#2da4c6" stroke-width="1.51"/><path d="M596,-240L175,-67L702,194Z" fill="#2ca0c2" stroke="#2ca0c2" stroke-width="1.51"/><path d="M2292,488L2424,-102L2258,85Z" fill="#227892" stroke="#227892" stroke-width="1.51"/><path d="M2320,1283L2044,840L1908,1121Z" fill="#195467" stroke="#195467" stroke-width="1.51"/><path d="M2099,1491L2320,1283L1908,1121Z" fill="#195467" stroke="#195467" stroke-width="1.51"/><path d="M653,1641L914,2004L957,1598Z" fill="#1f6c83" stroke="#1f6c83" stroke-width="1.51"/><path d="M324,1270L304,1634L653,1641Z" fill="#21758e" stroke="#21758e" stroke-width="1.51"/><path d="M-120,1205L324,1270L291,795Z" fill="#237b95" stroke="#237b95" stroke-width="1.51"/><path d="M-108,442L333,508L199,192Z" fill="#2a98b9" stroke="#2a98b9" stroke-width="1.51"/><path d="M-145,147L-108,442L199,192Z" fill="#2ca1c3" stroke="#2ca1c3" stroke-width="1.51"/><path d="M864,-475L650,-547L596,-240Z" fill="#2a9bbc" stroke="#2a9bbc" stroke-width="1.51"/><path d="M1219,-562L650,-547L864,-475Z" fill="#2996b6" stroke="#2996b6" stroke-width="1.51"/><path d="M-108,442L-163,844L291,795Z" fill="#288ead" stroke="#288ead" stroke-width="1.51"/><path d="M1195,1870L1704,1921L1557,1667Z" fill="#1c5d72" stroke="#1c5d72" stroke-width="1.51"/><path d="M2099,1491L2337,1540L2320,1283Z" fill="#195467" stroke="#195467" stroke-width="1.51"/><path d="M672,2009L914,2004L653,1641Z" fill="#206d86" stroke="#206d86" stroke-width="1.51"/><path d="M1195,1870L914,2004L1704,1921Z" fill="#1d6278" stroke="#1d6278" stroke-width="1.51"/><path d="M-163,844L-120,1205L291,795Z" fill="#2584a0" stroke="#2584a0" stroke-width="1.51"/><path d="M-433,634L-331,906L-163,844Z" fill="#278aa8" stroke="#278aa8" stroke-width="1.51"/><path d="M175,-67L-145,147L199,192Z" fill="#2da6c9" stroke="#2da6c9" stroke-width="1.51"/><path d="M-78,-231L-145,147L175,-67Z" fill="#2eacd0" stroke="#2eacd0" stroke-width="1.51"/><path d="M291,1948L672,2009L653,1641Z" fill="#21728b" stroke="#21728b" stroke-width="1.51"/><path d="M291,1948L653,1641L304,1634Z" fill="#22758e" stroke="#22758e" stroke-width="1.51"/><path d="M2010,2030L2337,1540L2099,1491Z" fill="#195467" stroke="#195467" stroke-width="1.51"/><path d="M2320,1283L2337,1540L2448,780Z" fill="#195467" stroke="#195467" stroke-width="1.51"/><path d="M650,-547L209,-436L596,-240Z" fill="#2ca0c2" stroke="#2ca0c2" stroke-width="1.51"/><path d="M2258,85L2424,-102L1914,-90Z" fill="#247f9a" stroke="#247f9a" stroke-width="1.51"/><path d="M2448,780L2424,-102L2292,488Z" fill="#206f87" stroke="#206f87" stroke-width="1.51"/><path d="M-120,1205L-66,1500L324,1270Z" fill="#247e98" stroke="#247e98" stroke-width="1.51"/><path d="M2424,-102L2104,-534L1914,-90Z" fill="#247f9a" stroke="#247f9a" stroke-width="1.51"/><path d="M1607,-439L2104,-534L1219,-562Z" fill="#2585a1" stroke="#2585a1" stroke-width="1.51"/><path d="M-120,1205L-440,1600L-66,1500Z" fill="#247f9a" stroke="#247f9a" stroke-width="1.51"/><path d="M-163,844L-331,906L-120,1205Z" fill="#25829f" stroke="#25829f" stroke-width="1.51"/><path d="M-433,634L-163,844L-108,442Z" fill="#2891af" stroke="#2891af" stroke-width="1.51"/><path d="M-145,147L-365,298L-108,442Z" fill="#2b9fc1" stroke="#2b9fc1" stroke-width="1.51"/><path d="M209,-436L-78,-231L175,-67Z" fill="#2ea9cd" stroke="#2ea9cd" stroke-width="1.51"/><path d="M-74,1815L291,1948L304,1634Z" fill="#237b95" stroke="#237b95" stroke-width="1.51"/><path d="M-363,-133L-365,298L-145,147Z" fill="#2da7ca" stroke="#2da7ca" stroke-width="1.51"/><path d="M672,2009L2010,2030L914,2004Z" fill="#1d647a" stroke="#1d647a" stroke-width="1.51"/><path d="M914,2004L2010,2030L1704,1921Z" fill="#1b5c71" stroke="#1b5c71" stroke-width="1.51"/><path d="M1704,1921L2010,2030L2099,1491Z" fill="#195467" stroke="#195467" stroke-width="1.51"/><path d="M-365,298L-433,634L-108,442Z" fill="#2a98b9" stroke="#2a98b9" stroke-width="1.51"/><path d="M209,-436L-62,-479L-78,-231Z" fill="#2eabcf" stroke="#2eabcf" stroke-width="1.51"/><path d="M-78,-231L-363,-133L-145,147Z" fill="#2eacd0" stroke="#2eacd0" stroke-width="1.51"/><path d="M650,-547L-62,-479L209,-436Z" fill="#2da5c8" stroke="#2da5c8" stroke-width="1.51"/><path d="M-505,1199L-120,1205L-331,906Z" fill="#247f9a" stroke="#247f9a" stroke-width="1.51"/><path d="M-440,1600L-74,1815L-66,1500Z" fill="#247f9a" stroke="#247f9a" stroke-width="1.51"/><path d="M-66,1500L-74,1815L304,1634Z" fill="#237d98" stroke="#237d98" stroke-width="1.51"/><path d="M2424,-102L2444,-487L2104,-534Z" fill="#247f9a" stroke="#247f9a" stroke-width="1.51"/><path d="M2448,780L2444,-487L2424,-102Z" fill="#237c97" stroke="#237c97" stroke-width="1.51"/><path d="M-338,-520L-363,-133L-78,-231Z" fill="#2eacd0" stroke="#2eacd0" stroke-width="1.51"/><path d="M-365,298L-363,-133L-433,634Z" fill="#2ca0c2" stroke="#2ca0c2" stroke-width="1.51"/><path d="M-363,-133L-505,1199L-433,634Z" fill="#2994b3" stroke="#2994b3" stroke-width="1.51"/><path d="M-433,634L-505,1199L-331,906Z" fill="#2586a2" stroke="#2586a2" stroke-width="1.51"/><path d="M2010,2030L2451,1909L2337,1540Z" fill="#195467" stroke="#195467" stroke-width="1.51"/><path d="M2337,1540L2451,1909L2448,780Z" fill="#195467" stroke="#195467" stroke-width="1.51"/><path d="M-505,1199L-440,1600L-120,1205Z" fill="#247f9a" stroke="#247f9a" stroke-width="1.51"/><path d="M-363,-133L-338,-520L-505,1199Z" fill="#2da4c6" stroke="#2da4c6" stroke-width="1.51"/><path d="M-62,-479L-338,-520L-78,-231Z" fill="#2eacd0" stroke="#2eacd0" stroke-width="1.51"/><path d="M650,-547L-338,-520L-62,-479Z" fill="#2eaacd" stroke="#2eaacd" stroke-width="1.51"/><path d="M-74,1815L-480,2015L291,1948Z" fill="#247f9a" stroke="#247f9a" stroke-width="1.51"/><path d="M291,1948L-480,2015L672,2009Z" fill="#237b96" stroke="#237b96" stroke-width="1.51"/><path d="M672,2009L-480,2015L2010,2030Z" fill="#206e86" stroke="#206e86" stroke-width="1.51"/><path d="M-440,1600L-480,2015L-74,1815Z" fill="#247f9a" stroke="#247f9a" stroke-width="1.51"/><path d="M-505,1199L-480,2015L-440,1600Z" fill="#247f9a" stroke="#247f9a" stroke-width="1.51"/></svg>