<?xml version="1.0" encoding="utf-8"?>
<!-- Generator: Adobe Illustrator 22.0.0, SVG Export Plug-In . SVG Version: 6.00 Build 0)  -->
<svg version="1.1" id="icon" xmlns="http://www.w3.org/2000/svg" xmlns:xlink="http://www.w3.org/1999/xlink" x="0px" y="0px"
	 viewBox="0 0 508 508" style="enable-background:new 0 0 508 508;" xml:space="preserve">
<style type="text/css">
	.st0{fill:#333333;}
</style>
<g>
	<path class="st0" d="M251.1,252.1c-0.1-5.9-0.2-12.1-0.1-19c2.7,0.3,6.2,1.4,8.2,4.5c0.2,0.4,0.6,0.6,1,0.6c0.4,0,0.9-0.3,1.1-0.6
		c0.2-0.3,0.2-0.7-0.1-1.1c-1.8-2.9-5.4-4.8-10.2-5.4l0-1.9c0-1.1,0-2.2,0-3.3c0-0.3-0.1-0.6-0.3-0.8c-0.2-0.2-0.5-0.3-0.9-0.3
		c-0.6,0-1.2,0.4-1.2,1.1c0,1.1,0,2.1,0,3.2v1.8c-0.3,0-0.6,0-0.8,0c-1.8,0-3.6,0.2-5.3,0.5l0-5.1c0-0.3-0.1-0.6-0.3-0.8
		c-0.2-0.2-0.5-0.3-0.9-0.3c-0.6,0-1.2,0.4-1.2,1.1l0,5.7c-4.3,1.3-7.5,3.5-8.9,6.3c-1,2-1.1,4.3-0.3,6.7c1.7,4.8,5.7,6.4,9.1,7.2
		l0,18.1c-4.4-1-7.3-3.8-8.9-8.5c-0.2-0.5-0.6-0.8-1.1-0.8c-0.4,0-0.8,0.2-1,0.5c-0.2,0.3-0.2,0.6-0.1,1c2,5.9,5.6,9.2,11.2,10.3
		l0,10.5c0,0.3,0.1,0.6,0.3,0.8c0.2,0.2,0.5,0.3,0.9,0.3c0.6,0,1.2-0.4,1.2-1.1l0-10.2c0.7,0.1,1.4,0.1,2.1,0.1c1,0,2,0,3.1-0.1
		c0.6-0.1,1.1-0.1,1.7-0.2l0,0.7c0.1,3.2,0.2,6.3,0.4,9.5c0,0.7,0.6,1.1,1.2,1.1c0.3,0,0.6-0.1,0.8-0.3c0.2-0.2,0.3-0.5,0.3-0.8
		c-0.2-3.6-0.3-7.1-0.5-10.7c2.5-0.7,6.9-2.4,8.9-5.9c1.1-1.9,1.3-4,0.6-6.3C259.7,254.8,255.3,253.1,251.1,252.1z M251.6,270
		c-0.2-5.6-0.4-10.7-0.5-15.7c1.3,0.4,2.3,0.8,3.2,1.2c2.3,1.3,4,3.3,4.6,5.4c0.4,1.6,0.2,3.2-0.7,4.7
		C256.8,267.8,254.7,269.2,251.6,270z M246.5,251.2c-1.4-0.2-2.8-0.5-4.1-0.8l0-16.7c2-0.5,4.1-0.8,6.1-0.8h0c0,6.6,0,12.7,0.1,18.6
		C248,251.5,247.2,251.3,246.5,251.2z M242.4,252.7c0.9,0.2,1.9,0.3,2.8,0.5c1.2,0.2,2.4,0.4,3.5,0.6c0.1,5.4,0.3,10.8,0.5,16.7
		c-0.8,0.1-1.7,0.2-2.5,0.3c-0.8,0.1-1.5,0.1-2.2,0.1c-0.8,0-1.5,0-2.2-0.1L242.4,252.7z M240.1,234.6l0,15.2
		c-0.3-0.1-0.6-0.2-0.8-0.3c-2.2-0.9-5.1-2.8-6.1-5.6c-0.5-1.5-0.4-3,0.5-4.5C235.1,237,237.9,235.5,240.1,234.6z"/>
	<path class="st0" d="M302.9,252.6c-1.2-16.1-5.2-28.3-12.2-37.3c-7.7-9.8-19.1-17.1-32.2-20.5c-4.3-1-8.7-1.5-13-1.5
		c-8.6,0-16.9,2-24.8,6c-7.9,4-22.2,12.8-28,25.9c-5.4,12.2-7,25.9-4.2,36.8c2.5,9.8,8.3,19.7,16.4,27.8
		c11.8,11.8,27.9,18.5,44.4,18.5c0,0,0,0,0,0c5.1,0,10.1-0.6,15-1.9C288.1,300.1,304.7,277,302.9,252.6z M300.7,258.7
		c-0.3,5.4-2,11.7-5.2,18.7c-4.8,10.6-12.7,18.7-22.9,23.5c-7.2,3.4-15.1,5.1-23.3,5.1c-12.8,0-25.5-4.2-35.8-11.9
		c-7.7-5.7-14.2-13.4-18.6-22.1c-5.5-10.8-6.5-21.9-3.2-35.8c2-8.5,4.7-14.1,9-18.9c4-4.5,9.2-8.7,15.3-12.6c9.5-6,19.5-9,29.8-9
		c4,0,8.1,0.5,12.1,1.4c11.2,2.9,21,8.7,28.5,16.8c6.6,7.2,10.9,16.8,13,29.3C300.2,247.9,301,253.4,300.7,258.7z"/>
	<path class="st0" d="M244.8,207c-3.7,0-7.4,0.5-10.9,1.4c-19.3,5.1-34.5,26.2-33.3,46.1c1,8.4,5.4,17.9,12,26.1
		c6.2,7.8,14.2,12.5,24.4,14.5c3.8,0.8,8.9,1.6,13.9,1.6c5.4,0,10.2-1,14.7-3.1c8-3.7,14.9-9.8,19.5-17.3c9.1-14.8,7.3-36.1-4.5-52
		C272.5,213.7,258.8,207,244.8,207z M286.7,267.8c-2.8,7.8-8.3,14.9-15.5,19.9c-6.4,4.5-13.1,6.7-20.5,6.7c-1.5,0-3.1-0.1-4.7-0.3
		c-10-1.2-20.3-3.3-28.1-11.1c-7.9-7.9-13.8-19.1-15-28.6c-1-15.7,9.7-33.7,24.3-41.1c5.3-2.6,11.3-4,17.5-4
		c10.7,0,21.3,4.1,29,11.1C286.4,232,292,252.8,286.7,267.8z"/>
	<path class="st0" d="M225.4,222.5c-0.2,0-0.4,0.1-0.6,0.2c-7.8,5-13,12.8-14.7,21.9c-0.1,0.4,0,0.7,0.3,1c0.2,0.3,0.6,0.5,1,0.5
		c0.5,0,0.9-0.3,1-0.9c1.5-8.6,6.3-15.8,13.6-20.5c0.5-0.3,0.6-0.8,0.5-1.3C226.3,222.8,225.9,222.5,225.4,222.5z"/>
	<path class="st0" d="M230,221.9c0.2-0.2,0.3-0.5,0.3-0.8c0-0.6-0.4-1.2-1.1-1.2c-0.4,0-0.6,0.1-0.9,0.4c-0.2,0.2-0.3,0.5-0.3,0.8
		c0,0.6,0.4,1.2,1.1,1.2C229.5,222.3,229.8,222.2,230,221.9z"/>
</g>
</svg>
