<?xml version="1.0" encoding="utf-8"?>
<!-- Generator: Adobe Illustrator 22.0.0, SVG Export Plug-In . SVG Version: 6.00 Build 0)  -->
<svg version="1.1" xmlns="http://www.w3.org/2000/svg" xmlns:xlink="http://www.w3.org/1999/xlink" x="0px" y="0px"
	 viewBox="0 0 1200 1200" style="enable-background:new 0 0 1200 1200;" xml:space="preserve">
<style type="text/css">
	.st0{fill:none;}
	.st1{fill:#2E3535;}
	.st2{fill:#FFFFFF;}
	.st3{fill:url(#New_Pattern);}
</style>
<pattern  width="781.5" height="456.2" patternUnits="userSpaceOnUse" id="New_Pattern" viewBox="81 -541.2 781.5 456.2" style="overflow:visible;">
	<g>
		<rect x="81" y="-541.2" class="st0" width="781.5" height="456.2"/>
		<g>
			<path class="st1" d="M752.1-197.2c-0.3-0.4-0.5-1-0.4-1.5l9.8-68.9c0.1-0.5,0.4-1,0.8-1.3c0.4-0.3,1-0.5,1.5-0.4
				c3,0.4,5.9,0.8,8.9,1.1c1.1-11,10.3-19.6,21.5-19.6c5.8,0,11.2,2.3,15.3,6.3c3.6,3.6,5.8,8.2,6.2,13.2c3-0.3,5.9-0.6,8.9-1.1
				c0.5-0.1,1.1,0.1,1.5,0.4c0.4,0.3,0.7,0.8,0.8,1.3l9.8,68.9c0.2,1.1-0.6,2.1-1.7,2.3c-13.5,1.9-27.2,2.9-40.8,2.9
				c-13.6,0-27.3-1-40.8-2.9C752.9-196.5,752.4-196.7,752.1-197.2z M776.7-267.8c11.7,0.9,23.5,0.9,35.1,0
				c-0.4-4.1-2.2-7.8-5.1-10.7c-3.3-3.3-7.8-5.2-12.5-5.2C785.1-283.7,777.6-276.7,776.7-267.8z M756-200.1
				c12.6,1.7,25.5,2.6,38.3,2.6s25.6-0.9,38.3-2.6l-9.2-64.9c-2.5,0.3-4.9,0.6-7.4,0.9v4.3c1.3,0.7,2.2,2.1,2.2,3.7
				c0,2.3-1.9,4.2-4.2,4.2c-2.3,0-4.2-1.9-4.2-4.2c0-1.6,0.9-3,2.2-3.7v-3.9c-11.7,0.9-23.6,0.9-35.3,0v3.9c1.3,0.7,2.2,2.1,2.2,3.7
				c0,2.3-1.9,4.2-4.2,4.2c-2.3,0-4.2-1.9-4.2-4.2c0-1.6,0.9-3,2.2-3.7v-4.3c-2.5-0.2-4.9-0.5-7.4-0.9L756-200.1z"/>
			<g>
				<path class="st1" d="M852.4-324.6h11.7l14.3,69.3c0.2,0.9,1,1.6,2,1.6h74.6c0.9,0,1.8-0.7,2-1.6l10-47.3c0.1-0.6,0-1.2-0.4-1.7
					c-0.4-0.5-1-0.7-1.6-0.7h-60.6c-1.1,0-2,0.9-2,2c0,1.1,0.9,2,2,2h58.2l-5.8,27.5h-58.5c-1.1,0-2,0.9-2,2s0.9,2,2,2h57.6
					l-2.5,11.9h-71.4l-5.7-27.5h57.7c1.1,0,2-0.9,2-2c0-1.1-0.9-2-2-2h-58.5l-7.8-37.8c-0.2-0.9-1-1.6-2-1.6h-13.4c-1.1,0-2,0.9-2,2
					C850.4-325.5,851.3-324.6,852.4-324.6z"/>
			</g>
			<g>
				<path class="st1" d="M758.9-96.9l65.6-65.6c0.4-0.4,1-0.6,1.6-0.6s1.1,0.4,1.5,0.9l26.4,40.5c0.5,0.8,0.4,1.8-0.3,2.5
					l-52.8,52.8c-0.7,0.7-1.7,0.8-2.5,0.3l-11.1-7.3c0,0,0,0,0,0l-29-19.1c-0.2-0.1-0.3-0.2-0.5-0.3l-18.5-12.2l-8.3,8.3
					c-0.8,0.8-2,0.8-2.8,0c-0.8-0.8-0.8-2,0-2.8l9.4-9.4c0.7-0.7,1.7-0.8,2.5-0.3L758.9-96.9z M840-135.7v24.7l9.7-9.7L840-135.7z
					 M827.6-154.7v56.1l8.4-8.4v-34.6c0-0.1,0-0.1,0-0.2L827.6-154.7z M815.2-147.3l0,61.1l8.4-8.4c0-0.1,0-0.2,0-0.3v-61l-8.4,8.4
					C815.2-147.4,815.2-147.4,815.2-147.3z M802.8-135.1v61.3l8.4-8.4c0-0.1,0-0.1,0-0.2l0-61.1L802.8-135.1z M790.4-122.5v46.3
					l8.4,5.5l0-60.5l-8.4,8.4C790.4-122.6,790.4-122.5,790.4-122.5z M778-110.3v26l8.4,5.5l0-40L778-110.3z M762.3-94.6l11.7,7.7
					v-19.4L762.3-94.6z"/>
				<path class="st1" d="M858.8-99.3c-2.8,2.8-7.3,2.8-10.1,0c-2.8-2.8-2.8-7.3,0-10.1c2.8-2.8,7.3-2.8,10.1,0
					C861.6-106.7,861.6-102.1,858.8-99.3z M856-106.6c-1.2-1.2-3.2-1.2-4.4,0c-1.2,1.2-1.2,3.2,0,4.4c1.2,1.2,3.2,1.2,4.4,0
					C857.2-103.4,857.2-105.4,856-106.6z"/>
			</g>
			<path class="st1" d="M647.3-115.1c-0.8-0.8-0.8-2,0-2.8l37.2-37.2c0.3-0.3,0.6-0.5,1-0.5l0,0l19.6-3.9c0.7-0.1,1.3,0.1,1.8,0.5
				l0.7,0.7c4.7-4.4,13.6-11.9,17.1-8.4c3.4,3.5-4,12.4-8.4,17.1l0.7,0.7c0.5,0.5,0.7,1.1,0.5,1.8l-3.9,19.6l0,0
				c-0.1,0.4-0.3,0.7-0.5,1l-37.2,37.2c-0.4,0.4-0.9,0.6-1.4,0.6c-0.5,0-1-0.2-1.4-0.6L647.3-115.1z M710.4-155.4l3,3
				c4.7-5.1,7.2-9.1,7.9-10.9C719.4-162.6,715.5-160.2,710.4-155.4z M651.5-116.5l22.9,22.9l35.3-35.3l3.5-17.8l0-0.2l-2.7-2.7l-3-3
				c-2.8,2.8-4.8,5.4-6.3,7.5c0.4,0.3,0.7,0.5,1,0.9c0.3,0.3,0.6,0.7,0.9,1c0.8,1.2,1.3,2.5,1.4,3.9c0.2,2.3-0.6,4.6-2.3,6.3
				c-3.1,3.1-8.2,3.1-11.3,0c-3.1-3.1-3.1-8.2,0-11.3c1.7-1.7,4.1-2.5,6.4-2.3c2.3-3.4,5.3-6.7,7.3-8.7l-17.8,3.5L651.5-116.5z
				 M699.7-141.1c-0.1-0.1-0.2-0.3-0.3-0.4c-0.1-0.1-0.2-0.2-0.4-0.3c-1.2-1-2.8-1.1-4.2-0.5c-0.4,0.2-0.8,0.4-1.1,0.8
				c-1.6,1.6-1.6,4.1,0,5.7c1.6,1.6,4.1,1.6,5.7,0c0.3-0.3,0.6-0.7,0.8-1.1C700.8-138.3,700.7-139.9,699.7-141.1z"/>
		</g>
		<g>
			<g>
				<path class="st1" d="M461.7-96.5h11.7l14.3,69.3c0.2,0.9,1,1.6,2,1.6h74.6c0.9,0,1.8-0.7,2-1.6l10-47.3c0.1-0.6,0-1.2-0.4-1.7
					c-0.4-0.5-1-0.7-1.6-0.7h-60.6c-1.1,0-2,0.9-2,2c0,1.1,0.9,2,2,2h58.2L566-45.4h-58.5c-1.1,0-2,0.9-2,2s0.9,2,2,2h57.6
					l-2.5,11.9h-71.4l-5.7-27.5h57.7c1.1,0,2-0.9,2-2s-0.9-2-2-2h-58.5L477-98.9c-0.2-0.9-1-1.6-2-1.6h-13.4c-1.1,0-2,0.9-2,2
					C459.7-97.4,460.6-96.5,461.7-96.5z"/>
			</g>
		</g>
		<g>
			<path class="st1" d="M194.7-108.5h-84.2c-0.6,0-1.2-0.3-1.6-0.7c-0.4-0.5-0.5-1.1-0.4-1.7l15.5-71.7c0.2-0.9,1-1.6,2-1.6h9.6
				c0.1-9.3,7.7-16.8,17-16.8c4.5,0,8.8,1.8,12,5c3.2,3.2,4.9,7.3,5,11.8h9.6c0.9,0,1.8,0.7,2,1.6l15.5,71.7c0.1,0.6,0,1.2-0.4,1.7
				C195.9-108.8,195.3-108.5,194.7-108.5z M139.6-184.2h26c-0.1-3.4-1.4-6.6-3.8-9c-2.5-2.5-5.7-3.8-9.2-3.8
				C145.5-197,139.7-191.3,139.6-184.2z M192.2-112.5l-14.6-67.7h-7.9v4c1.1,0.7,1.9,1.9,1.9,3.3c0,2.2-1.7,3.9-3.9,3.9
				c-2.2,0-3.9-1.7-3.9-3.9c0-1.4,0.8-2.6,1.9-3.3v-4h-26.1v4c1.1,0.7,1.9,1.9,1.9,3.3c0,2.2-1.7,3.9-3.9,3.9
				c-2.2,0-3.9-1.7-3.9-3.9c0-1.4,0.8-2.6,1.9-3.3v-4h-7.9L113-112.5H192.2z"/>
			<g>
				<path class="st1" d="M70.9-324.6h11.7L97-255.3c0.2,0.9,1,1.6,2,1.6h74.6c0.9,0,1.8-0.7,2-1.6l10-47.3c0.1-0.6,0-1.2-0.4-1.7
					c-0.4-0.5-1-0.7-1.6-0.7h-60.6c-1.1,0-2,0.9-2,2c0,1.1,0.9,2,2,2h58.2l-5.8,27.5h-58.5c-1.1,0-2,0.9-2,2s0.9,2,2,2h57.6
					l-2.5,11.9h-71.4l-5.7-27.5h57.7c1.1,0,2-0.9,2-2c0-1.1-0.9-2-2-2H94.1L86.2-327c-0.2-0.9-1-1.6-2-1.6H70.9c-1.1,0-2,0.9-2,2
					C68.9-325.5,69.8-324.6,70.9-324.6z"/>
				<path class="st1" d="M163.2-236.1c-3.9,0-7.1-3.2-7.1-7.1c0-3.9,3.2-7.1,7.1-7.1c3.9,0,7.1,3.2,7.1,7.1
					C170.4-239.3,167.2-236.1,163.2-236.1z M163.2-240.1c1.7,0,3.1-1.4,3.1-3.1c0-1.7-1.4-3.1-3.1-3.1c-1.7,0-3.1,1.4-3.1,3.1
					C160.1-241.5,161.5-240.1,163.2-240.1z"/>
				<path class="st1" d="M108.5-236.1c-3.9,0-7.1-3.2-7.1-7.1c0-3.9,3.2-7.1,7.1-7.1c3.9,0,7.1,3.2,7.1,7.1
					C115.6-239.3,112.4-236.1,108.5-236.1z M108.5-240.1c1.7,0,3.1-1.4,3.1-3.1c0-1.7-1.4-3.1-3.1-3.1c-1.7,0-3.1,1.4-3.1,3.1
					C105.4-241.5,106.8-240.1,108.5-240.1z"/>
			</g>
			<g>
				<path class="st1" d="M209.2-17.5c4,4,4,10.5,0,14.5c-1.9,1.9-4.5,3-7.2,3c-2.7,0-5.3-1.1-7.2-3c-0.1-0.1-0.2-0.2-0.2-0.3l-25-36
					c-4.7,3.9-10.6,6.1-16.8,6.1l0,0c-7,0-13.6-2.7-18.6-7.7c-5-5-7.7-11.6-7.7-18.6c0-7,2.7-13.6,7.7-18.6c5-5,11.5-7.7,18.6-7.7
					c7,0,13.6,2.7,18.6,7.7c5,5,7.7,11.5,7.7,18.6c0,6.2-2.1,12.1-6.1,16.8l36,25C209-17.6,209.1-17.5,209.2-17.5z M175-59.5
					c0-5.9-2.3-11.5-6.5-15.7c-4.2-4.2-9.8-6.5-15.7-6.5c-5.9,0-11.5,2.3-15.7,6.5c-4.2,4.2-6.5,9.8-6.5,15.7
					c0,5.9,2.3,11.5,6.5,15.7c4.2,4.2,9.8,6.5,15.7,6.5c5.9,0,11.5-2.3,15.7-6.5C172.6-47.9,175-53.5,175-59.5z M206.5-14.5
					l-28.7-19.9l19.9,28.7c1.2,1.1,2.7,1.7,4.3,1.7c1.7,0,3.2-0.6,4.4-1.8C208.7-8.2,208.8-12.1,206.5-14.5z"/>
			</g>
			<g>
				<path class="st1" d="M326.7-174.8c0,5.2-3.9,9.8-8.8,11.1v59.1c0,1.1-0.9,2-2,2h-76.5c-1.1,0-2-0.9-2-2v-58.9
					c-5.4-0.9-9.7-5.7-9.7-11.3c0-5.5,7.5-16.9,8.4-18.2c0.4-0.6,1-0.9,1.7-0.9h78.9c0.7,0,1.3,0.3,1.7,0.9
					C319.2-191.7,326.7-180.2,326.7-174.8z M259.9-137.9h-18.5v31.3h18.5V-137.9z M313.9-152.4h-50v12.5v33.3h50V-152.4z
					 M313.9-163.4c-3.4-0.4-6.4-2.3-8.2-5c-2.1,3-5.6,5-9.5,5c-3.9,0-7.4-2-9.5-5c-2.1,3-5.6,5-9.5,5c-3.9,0-7.4-2-9.5-5
					c-2.1,3-5.6,5-9.5,5c-3.9,0-7.4-2-9.5-5c-1.7,2.5-4.3,4.2-7.3,4.8v21.7h18.5v-12.5c0-1.1,0.9-2,2-2h52V-163.4z M322.7-174.8
					c0-2.9-4.2-10.4-7.1-15h-76.8c-3,4.6-7.1,12-7.1,15c0,4.1,3.4,7.5,7.5,7.5c4.1,0,7.5-3.4,7.5-7.5c0-1.1,0.9-2,2-2
					c1.1,0,2,0.9,2,2c0,4.1,3.4,7.5,7.5,7.5c4.1,0,7.5-3.4,7.5-7.5c0-1.1,0.9-2,2-2c1.1,0,2,0.9,2,2c0,4.1,3.4,7.5,7.5,7.5
					c4.1,0,7.5-3.4,7.5-7.5c0-1.1,0.9-2,2-2c1.1,0,2,0.9,2,2c0,4.1,3.4,7.5,7.5,7.5c4.1,0,7.5-3.4,7.5-7.5c0-1.1,0.9-2,2-2
					c1.1,0,2,0.9,2,2c0,4.1,3.4,7.5,7.5,7.5C319.1-167.4,322.7-170.9,322.7-174.8z"/>
				<path class="st1" d="M276-131.2c0.5,0,1-0.2,1.4-0.6l9-9c0.8-0.8,0.8-2,0-2.8c-0.8-0.8-2-0.8-2.8,0l-9,9c-0.8,0.8-0.8,2,0,2.8
					C275-131.4,275.5-131.2,276-131.2z"/>
				<path class="st1" d="M276-113.8c0.5,0,1-0.2,1.4-0.6l26.4-26.4c0.8-0.8,0.8-2,0-2.8c-0.8-0.8-2-0.8-2.8,0l-26.4,26.4
					c-0.8,0.8-0.8,2,0,2.8C275-114,275.5-113.8,276-113.8z"/>
				<path class="st1" d="M301-126.2l-9,9c-0.8,0.8-0.8,2,0,2.8c0.4,0.4,0.9,0.6,1.4,0.6c0.5,0,1-0.2,1.4-0.6l9-9
					c0.8-0.8,0.8-2,0-2.8C303.1-127,301.8-127,301-126.2z"/>
				<path class="st1" d="M250.6-119.4c1.6,0,2.8-1.3,2.8-2.8c0-1.6-1.3-2.8-2.8-2.8c-1.6,0-2.8,1.3-2.8,2.8
					C247.8-120.7,249.1-119.4,250.6-119.4z"/>
			</g>
		</g>
		<g>
			<g>
				<path class="st1" d="M758.9-553.1l65.6-65.6c0.4-0.4,1-0.6,1.6-0.6c0.6,0.1,1.1,0.4,1.5,0.9l26.4,40.5c0.5,0.8,0.4,1.8-0.3,2.5
					l-52.8,52.8c-0.7,0.7-1.7,0.8-2.5,0.3l-11.1-7.3c0,0,0,0,0,0l-29-19.1c-0.2-0.1-0.3-0.2-0.5-0.3l-18.5-12.2l-8.3,8.3
					c-0.8,0.8-2,0.8-2.8,0c-0.8-0.8-0.8-2,0-2.8l9.4-9.4c0.7-0.7,1.7-0.8,2.5-0.3L758.9-553.1z M840-591.9v24.7l9.7-9.7L840-591.9z
					 M827.6-611v56.1l8.4-8.4v-34.6c0-0.1,0-0.1,0-0.2L827.6-611z M815.2-603.5l0,61.1l8.4-8.4c0-0.1,0-0.2,0-0.3v-61l-8.4,8.4
					C815.2-603.7,815.2-603.6,815.2-603.5z M802.8-591.3v61.3l8.4-8.4c0-0.1,0-0.1,0-0.2l0-61.1L802.8-591.3z M790.4-578.7v46.3
					l8.4,5.5l0-60.5l-8.4,8.4C790.4-578.9,790.4-578.8,790.4-578.7z M778-566.6v26l8.4,5.5l0-40L778-566.6z M762.3-550.8l11.7,7.7
					v-19.4L762.3-550.8z"/>
				<path class="st1" d="M810-527c2.8-2.8,7.3-2.8,10.1,0c2.8,2.8,2.8,7.3,0,10.1c-2.8,2.8-7.3,2.8-10.1,0
					C807.3-519.7,807.3-524.2,810-527z M812.9-524.1c-1.2,1.2-1.2,3.2,0,4.4c1.2,1.2,3.2,1.2,4.4,0c1.2-1.2,1.2-3.2,0-4.4
					C816.1-525.4,814.1-525.4,812.9-524.1z"/>
			</g>
			<g>
				<path class="st1" d="M725.3-511.3v56.5c0,1.1-0.9,2-2,2H639c-1.1,0-2-0.9-2-2v-56.5c0-1.1,0.9-2,2-2h84.3
					C724.4-513.3,725.3-512.4,725.3-511.3z M721.3-491.5H641v34.7h80.3V-491.5z M721.3-509.3H641v8h80.3V-509.3z"/>
				<path class="st1" d="M733.3-523.4h-72c-1.1,0-2,0.9-2,2c0,1.1,0.9,2,2,2h70v54.5c0,1.1,0.9,2,2,2c1.1,0,2-0.9,2-2v-56.5
					C735.3-522.5,734.4-523.4,733.3-523.4z"/>
				<path class="st1" d="M646.2-480h28.2c1.1,0,2-0.9,2-2c0-1.1-0.9-2-2-2h-28.2c-1.1,0-2,0.9-2,2C644.2-480.9,645.1-480,646.2-480z
					"/>
				<path class="st1" d="M646.2-471h15.2c1.1,0,2-0.9,2-2c0-1.1-0.9-2-2-2h-15.2c-1.1,0-2,0.9-2,2C644.2-471.9,645.1-471,646.2-471z
					"/>
				<path class="st1" d="M646.2-461.9h23.3c1.1,0,2-0.9,2-2c0-1.1-0.9-2-2-2h-23.3c-1.1,0-2,0.9-2,2
					C644.2-462.8,645.1-461.9,646.2-461.9z"/>
				<path class="st1" d="M673.3-463.9c0,1.1,0.9,2,2,2H697c1.1,0,2-0.9,2-2c0-1.1-0.9-2-2-2h-21.7
					C674.2-465.9,673.3-465,673.3-463.9z"/>
				<path class="st1" d="M703.5-461.9h12.7c1.1,0,2-0.9,2-2c0-1.1-0.9-2-2-2h-12.7c-1.1,0-2,0.9-2,2
					C701.5-462.8,702.4-461.9,703.5-461.9z"/>
			</g>
			<path class="st1" d="M888.3-424.3l-13,13c-0.8,0.8-2,0.8-2.8,0l-4.8-4.8l-31.8,31.8c-0.8,0.8-2,0.8-2.8,0l-50.8-50.8
				c-0.8-0.8-0.8-2,0-2.8l31.8-31.8l-4.8-4.8c-0.8-0.8-0.8-2,0-2.8l13-13c0.8-0.8,2-0.8,2.8,0l20.2,20.2c-0.3-0.7-0.6-1.3-0.8-1.9
				c-1-2.9-0.9-5.6,0.5-7.8c1.2-1.9,3.2-3.2,5.4-3.4c1.8-0.2,3.6,0.5,5.1,2c1.8,1.8,2.9,4.5,3,7.4c0.1,3.3-0.7,6.6-1.4,9.1
				c4.2-1.4,10.7-3.2,16.2-3.2c4.8,0,7.6,1.8,9.1,3.4c2.4,2.4,3.5,6.1,2.7,9.3c-0.6,2.3-2,4.2-4.2,5.4c-2.2,1.2-6,2.3-11.8,0.5
				c-1.7-0.5-3.5-1.4-5.4-2.5l24.9,24.9C889-426.4,889-425.1,888.3-424.3z M857.5-461c3.2,2.5,8.7,6.5,12.5,7.6
				c3.5,1.1,6.6,1,8.7-0.2c1.2-0.7,2-1.7,2.3-2.9c0.4-1.4,0.1-3.8-1.7-5.6c-1.4-1.4-3.6-2.2-6.3-2.2
				C867.8-464.1,861.3-462.3,857.5-461z M852.8-465.6c0.7-2.2,1.5-5.4,1.4-8.4c-0.1-1.8-0.7-3.6-1.9-4.7c-0.6-0.6-1.3-1-1.8-0.9
				c-0.7,0.1-1.8,0.5-2.4,1.6c-0.7,1.1-0.7,2.6-0.1,4.3C849-470.8,851.2-467.7,852.8-465.6z M822.5-427.5l-22.3-22.3
				c-0.1-0.1-0.2-0.2-0.3-0.3l-13.6,13.6l22.6,22.6L822.5-427.5z M839.3-444.4L816.7-467l-14.1,14.1c0.1,0.1,0.2,0.2,0.3,0.3
				l22.3,22.3L839.3-444.4z M847.9-402.1c-0.1-0.1-0.2-0.2-0.3-0.3l-22.3-22.3l-13.5,13.5l22.6,22.6L847.9-402.1z M864.8-419
				l-22.6-22.6l-14.1,14.1l22.3,22.3c0.1,0.1,0.2,0.2,0.3,0.3L864.8-419z M884-425.7l-60.5-60.5l-10.2,10.2l60.5,60.5L884-425.7z"/>
			<path class="st1" d="M827.1-327.3c-0.4,0.9-1.5,2.5-4.8,2.5h-85.1c-3.3,0-4.4-1.6-4.8-2.5c-0.4-1-0.6-3,2.2-5.5l38.9-35.2
				c1.2-1.1,2.7-1.8,4.3-2.2v-3.7c0-1.1,0.9-2,2-2c4.2,0,7.6-3.4,7.6-7.6s-3.4-7.6-7.6-7.6c-4.2,0-7.6,3.4-7.6,7.6c0,1.1-0.9,2-2,2
				c-1.1,0-2-0.9-2-2c0-6.4,5.2-11.6,11.6-11.6c6.4,0,11.6,5.2,11.6,11.6c0,5.7-4.1,10.5-9.6,11.4v1.8c1.6,0.3,3.1,1.1,4.3,2.2
				l38.9,35.2C827.7-330.3,827.4-328.2,827.1-327.3z M823.1-328.8c-0.2-0.2-0.4-0.6-0.9-0.9L783.4-365c-0.9-0.9-2.2-1.3-3.6-1.3
				c-1.4,0-2.7,0.5-3.6,1.3l-38.9,35.2c-0.4,0.4-0.7,0.7-0.9,0.9c0.2,0,0.5,0.1,0.8,0.1h85.1C822.6-328.8,822.9-328.8,823.1-328.8z"
				/>
		</g>
		<g>
			<path class="st1" d="M585.4-336.6h-84.2c-0.6,0-1.2-0.3-1.6-0.7c-0.4-0.5-0.5-1.1-0.4-1.7l15.5-71.7c0.2-0.9,1-1.6,2-1.6h9.6
				c0.1-9.3,7.7-16.8,17-16.8c4.5,0,8.8,1.8,12,5c3.2,3.2,4.9,7.3,5,11.8h9.6c0.9,0,1.8,0.7,2,1.6l15.5,71.7c0.1,0.6,0,1.2-0.4,1.7
				C586.6-336.9,586-336.6,585.4-336.6z M530.3-412.3h26c-0.1-3.4-1.4-6.6-3.8-9c-2.5-2.5-5.7-3.8-9.2-3.8
				C536.2-425.1,530.5-419.4,530.3-412.3z M583-340.6l-14.6-67.7h-7.9v4c1.1,0.7,1.9,1.9,1.9,3.3c0,2.2-1.7,3.9-3.9,3.9
				c-2.2,0-3.9-1.7-3.9-3.9c0-1.4,0.8-2.6,1.9-3.3v-4h-26.1v4c1.1,0.7,1.9,1.9,1.9,3.3c0,2.2-1.7,3.9-3.9,3.9
				c-2.2,0-3.9-1.7-3.9-3.9c0-1.4,0.8-2.6,1.9-3.3v-4h-7.9l-14.6,67.7H583z"/>
			<path class="st1" d="M361.4-425.3c-0.3-0.4-0.5-1-0.4-1.5l9.8-68.9c0.1-0.5,0.4-1,0.8-1.3c0.4-0.3,1-0.5,1.5-0.4
				c3,0.4,5.9,0.8,8.9,1.1c1.1-11,10.3-19.6,21.5-19.6c5.8,0,11.2,2.3,15.3,6.3c3.6,3.6,5.8,8.2,6.2,13.2c3-0.3,5.9-0.6,8.9-1.1
				c0.5-0.1,1.1,0.1,1.5,0.4c0.4,0.3,0.7,0.8,0.8,1.3l9.8,68.9c0.2,1.1-0.6,2.1-1.7,2.3c-13.5,1.9-27.2,2.9-40.8,2.9
				c-13.6,0-27.3-1-40.8-2.9C362.2-424.6,361.7-424.9,361.4-425.3z M385.9-495.9c11.7,0.9,23.5,0.9,35.1,0
				c-0.4-4.1-2.2-7.8-5.1-10.7c-3.3-3.3-7.8-5.2-12.5-5.2C394.3-511.8,386.8-504.8,385.9-495.9z M365.2-428.2
				c12.6,1.7,25.5,2.6,38.3,2.6c12.8,0,25.6-0.9,38.3-2.6l-9.2-64.9c-2.5,0.3-4.9,0.6-7.4,0.9v4.3c1.3,0.7,2.2,2.1,2.2,3.7
				c0,2.3-1.9,4.2-4.2,4.2c-2.3,0-4.2-1.9-4.2-4.2c0-1.6,0.9-3,2.2-3.7v-3.9c-11.7,0.9-23.6,0.9-35.3,0v3.9c1.3,0.7,2.2,2.1,2.2,3.7
				c0,2.3-1.9,4.2-4.2,4.2c-2.3,0-4.2-1.9-4.2-4.2c0-1.6,0.9-3,2.2-3.7v-4.3c-2.5-0.2-4.9-0.5-7.4-0.9L365.2-428.2z"/>
			<g>
				<path class="st1" d="M461.7-552.7h11.7l14.3,69.3c0.2,0.9,1,1.6,2,1.6h74.6c0.9,0,1.8-0.7,2-1.6l10-47.3c0.1-0.6,0-1.2-0.4-1.7
					c-0.4-0.5-1-0.7-1.6-0.7h-60.6c-1.1,0-2,0.9-2,2c0,1.1,0.9,2,2,2h58.2l-5.8,27.5h-58.5c-1.1,0-2,0.9-2,2s0.9,2,2,2h57.6
					l-2.5,11.9h-71.4l-5.7-27.5h57.7c1.1,0,2-0.9,2-2s-0.9-2-2-2h-58.5l-7.8-37.8c-0.2-0.9-1-1.6-2-1.6h-13.4c-1.1,0-2,0.9-2,2
					S460.6-552.7,461.7-552.7z"/>
				<path class="st1" d="M554-464.2c-3.9,0-7.1-3.2-7.1-7.1c0-3.9,3.2-7.1,7.1-7.1c3.9,0,7.1,3.2,7.1,7.1
					C561.1-467.4,557.9-464.2,554-464.2z M554-468.2c1.7,0,3.1-1.4,3.1-3.1c0-1.7-1.4-3.1-3.1-3.1c-1.7,0-3.1,1.4-3.1,3.1
					C550.8-469.6,552.3-468.2,554-468.2z"/>
				<path class="st1" d="M499.3-464.2c-3.9,0-7.1-3.2-7.1-7.1c0-3.9,3.2-7.1,7.1-7.1c3.9,0,7.1,3.2,7.1,7.1
					C506.4-467.4,503.2-464.2,499.3-464.2z M499.3-468.2c1.7,0,3.1-1.4,3.1-3.1c0-1.7-1.4-3.1-3.1-3.1c-1.7,0-3.1,1.4-3.1,3.1
					C496.1-469.6,497.5-468.2,499.3-468.2z"/>
			</g>
			<g>
				<path class="st1" d="M368.1-325l65.6-65.6c0.4-0.4,1-0.6,1.6-0.6c0.6,0.1,1.1,0.4,1.5,0.9l26.4,40.5c0.5,0.8,0.4,1.8-0.3,2.5
					l-52.8,52.8c-0.7,0.7-1.7,0.8-2.5,0.3l-11.1-7.3c0,0,0,0,0,0l-29-19.1c-0.2-0.1-0.3-0.2-0.5-0.3l-18.5-12.2l-8.3,8.3
					c-0.8,0.8-2,0.8-2.8,0c-0.8-0.8-0.8-2,0-2.8l9.4-9.4c0.7-0.7,1.7-0.8,2.5-0.3L368.1-325z M449.2-363.8v24.7l9.7-9.7L449.2-363.8
					z M436.8-382.9v56.1l8.4-8.4v-34.6c0-0.1,0-0.1,0-0.2L436.8-382.9z M424.4-375.4l0,61.1l8.4-8.4c0-0.1,0-0.2,0-0.3v-61l-8.4,8.4
					C424.4-375.6,424.4-375.5,424.4-375.4z M412-363.2v61.3l8.4-8.4c0-0.1,0-0.1,0-0.2l0-61.1L412-363.2z M399.6-350.6v46.3l8.4,5.5
					l0-60.5l-8.4,8.4C399.6-350.7,399.6-350.7,399.6-350.6z M387.3-338.4v26l8.4,5.5l0-40L387.3-338.4z M371.5-322.7l11.7,7.7v-19.4
					L371.5-322.7z"/>
				<path class="st1" d="M468.1-327.5c-2.8,2.8-7.3,2.8-10.1,0c-2.8-2.8-2.8-7.3,0-10.1c2.8-2.8,7.3-2.8,10.1,0
					C470.9-334.8,470.9-330.2,468.1-327.5z M465.2-334.7c-1.2-1.2-3.2-1.2-4.4,0c-1.2,1.2-1.2,3.2,0,4.4c1.2,1.2,3.2,1.2,4.4,0
					C466.5-331.5,466.5-333.5,465.2-334.7z"/>
				<path class="st1" d="M419.3-298.9c2.8-2.8,7.3-2.8,10.1,0c2.8,2.8,2.8,7.3,0,10.1c-2.8,2.8-7.3,2.8-10.1,0
					C416.5-291.5,416.5-296.1,419.3-298.9z M422.1-296c-1.2,1.2-1.2,3.2,0,4.4c1.2,1.2,3.2,1.2,4.4,0c1.2-1.2,1.2-3.2,0-4.4
					C425.3-297.2,423.3-297.2,422.1-296z"/>
			</g>
			<g>
				<path class="st1" d="M334.6-283.2v56.5c0,1.1-0.9,2-2,2h-84.3c-1.1,0-2-0.9-2-2v-56.5c0-1.1,0.9-2,2-2h84.3
					C333.7-285.2,334.6-284.3,334.6-283.2z M330.6-263.4h-80.3v34.7h80.3V-263.4z M330.6-281.2h-80.3v8h80.3V-281.2z"/>
				<path class="st1" d="M342.6-295.2h-72c-1.1,0-2,0.9-2,2s0.9,2,2,2h70v54.5c0,1.1,0.9,2,2,2c1.1,0,2-0.9,2-2v-56.5
					C344.6-294.4,343.7-295.2,342.6-295.2z"/>
				<path class="st1" d="M255.4-251.9h28.2c1.1,0,2-0.9,2-2c0-1.1-0.9-2-2-2h-28.2c-1.1,0-2,0.9-2,2
					C253.4-252.8,254.3-251.9,255.4-251.9z"/>
				<path class="st1" d="M255.4-242.9h15.2c1.1,0,2-0.9,2-2c0-1.1-0.9-2-2-2h-15.2c-1.1,0-2,0.9-2,2
					C253.4-243.7,254.3-242.9,255.4-242.9z"/>
				<path class="st1" d="M255.4-233.8h23.3c1.1,0,2-0.9,2-2c0-1.1-0.9-2-2-2h-23.3c-1.1,0-2,0.9-2,2
					C253.4-234.7,254.3-233.8,255.4-233.8z"/>
				<path class="st1" d="M282.6-235.8c0,1.1,0.9,2,2,2h21.7c1.1,0,2-0.9,2-2c0-1.1-0.9-2-2-2h-21.7
					C283.5-237.8,282.6-236.9,282.6-235.8z"/>
				<path class="st1" d="M312.7-233.8h12.7c1.1,0,2-0.9,2-2c0-1.1-0.9-2-2-2h-12.7c-1.1,0-2,0.9-2,2
					C310.7-234.7,311.6-233.8,312.7-233.8z"/>
			</g>
			<path class="st1" d="M256.5-343.2c-0.8-0.8-0.8-2,0-2.8l37.2-37.2c0.3-0.3,0.6-0.5,1-0.5v0l19.6-3.9c0.7-0.1,1.3,0.1,1.8,0.5
				l0.7,0.7c4.7-4.4,13.6-11.9,17.1-8.4c3.4,3.5-4,12.4-8.4,17.1l0.7,0.7c0.5,0.5,0.7,1.1,0.5,1.8l-3.9,19.6l0,0
				c-0.1,0.4-0.3,0.7-0.5,1l-37.2,37.2c-0.4,0.4-0.9,0.6-1.4,0.6c-0.5,0-1-0.2-1.4-0.6L256.5-343.2z M319.6-383.5l3,3
				c4.7-5.1,7.2-9.1,7.9-10.9C328.7-390.8,324.7-388.3,319.6-383.5z M260.8-344.6l22.9,22.9L319-357l3.5-17.8l0-0.2l-2.7-2.7l-3-3
				c-2.8,2.8-4.8,5.4-6.3,7.5c0.4,0.3,0.7,0.5,1,0.9c0.3,0.3,0.6,0.7,0.9,1c0.8,1.2,1.3,2.5,1.4,3.9c0.2,2.3-0.6,4.6-2.3,6.3
				c-3.1,3.1-8.2,3.1-11.3,0c-3.1-3.1-3.1-8.2,0-11.3c1.7-1.7,4.1-2.5,6.4-2.3c2.3-3.4,5.3-6.7,7.3-8.7l-17.8,3.5L260.8-344.6z
				 M309-369.2c-0.1-0.1-0.2-0.2-0.3-0.4c-0.1-0.1-0.2-0.2-0.4-0.3c-1.2-1-2.8-1.1-4.2-0.5c-0.4,0.2-0.8,0.4-1.1,0.8
				c-1.6,1.6-1.6,4.1,0,5.7c1.6,1.6,4.1,1.6,5.7,0c0.3-0.3,0.6-0.7,0.8-1.1C310.1-366.4,309.9-368,309-369.2z"/>
			<g>
				<path class="st1" d="M556.4-300.5c-0.8-0.8-2-0.8-2.8,0c-0.8,0.8-0.8,2,0,2.8c2.7,2.7,4.2,6.3,4.2,10.1c0,3.8-1.5,7.4-4.2,10.1
					c-0.8,0.8-0.8,2,0,2.8c0.4,0.4,0.9,0.6,1.4,0.6s1-0.2,1.4-0.6c3.5-3.5,5.4-8.1,5.4-12.9C561.8-292.5,559.9-297.1,556.4-300.5z"
					/>
				<path class="st1" d="M599.9-245.6c4,4,4,10.5,0,14.5c-1.9,1.9-4.5,3-7.2,3c-2.7,0-5.3-1.1-7.2-3c-0.1-0.1-0.2-0.2-0.2-0.3
					l-25-36c-4.7,3.9-10.6,6.1-16.8,6.1l0,0c-7,0-13.6-2.7-18.6-7.7c-5-5-7.7-11.6-7.7-18.6c0-7,2.7-13.6,7.7-18.6
					c5-5,11.5-7.7,18.6-7.7c7,0,13.6,2.7,18.6,7.7c5,5,7.7,11.5,7.7,18.6c0,6.2-2.1,12.1-6.1,16.8l36,25
					C599.7-245.7,599.8-245.7,599.9-245.6z M565.7-287.6c0-5.9-2.3-11.5-6.5-15.7c-4.2-4.2-9.8-6.5-15.7-6.5
					c-5.9,0-11.5,2.3-15.7,6.5c-4.2,4.2-6.5,9.8-6.5,15.7c0,5.9,2.3,11.5,6.5,15.7c4.2,4.2,9.8,6.5,15.7,6.5
					c5.9,0,11.5-2.3,15.7-6.5C563.4-276,565.7-281.6,565.7-287.6z M597.2-242.6l-28.7-19.9l19.9,28.7c1.2,1.1,2.7,1.7,4.3,1.7
					c1.7,0,3.2-0.6,4.4-1.8C599.5-236.3,599.5-240.2,597.2-242.6z"/>
			</g>
			<g>
				<path class="st1" d="M717.4-403c0,5.2-3.9,9.8-8.8,11.1v59.1c0,1.1-0.9,2-2,2h-76.5c-1.1,0-2-0.9-2-2v-58.9
					c-5.4-0.9-9.7-5.7-9.7-11.3c0-5.5,7.5-16.9,8.4-18.2c0.4-0.6,1-0.9,1.7-0.9h78.9c0.7,0,1.3,0.3,1.7,0.9
					C709.9-419.8,717.4-408.3,717.4-403z M650.6-366h-18.5v31.3h18.5V-366z M704.6-380.5h-50v12.5v33.3h50V-380.5z M704.6-391.5
					c-3.4-0.4-6.4-2.3-8.2-5c-2.1,3-5.6,5-9.5,5s-7.4-2-9.5-5c-2.1,3-5.6,5-9.5,5s-7.4-2-9.5-5c-2.1,3-5.6,5-9.5,5s-7.4-2-9.5-5
					c-1.7,2.5-4.3,4.2-7.3,4.8v21.7h18.5v-12.5c0-1.1,0.9-2,2-2h52V-391.5z M713.4-403c0-2.9-4.2-10.4-7.1-15h-76.8
					c-3,4.6-7.1,12-7.1,15c0,4.1,3.4,7.5,7.5,7.5c4.1,0,7.5-3.4,7.5-7.5c0-1.1,0.9-2,2-2c1.1,0,2,0.9,2,2c0,4.1,3.4,7.5,7.5,7.5
					c4.1,0,7.5-3.4,7.5-7.5c0-1.1,0.9-2,2-2c1.1,0,2,0.9,2,2c0,4.1,3.4,7.5,7.5,7.5c4.1,0,7.5-3.4,7.5-7.5c0-1.1,0.9-2,2-2
					c1.1,0,2,0.9,2,2c0,4.1,3.4,7.5,7.5,7.5c4.1,0,7.5-3.4,7.5-7.5c0-1.1,0.9-2,2-2c1.1,0,2,0.9,2,2c0,4.1,3.4,7.5,7.5,7.5
					C709.9-395.5,713.4-399,713.4-403z"/>
				<path class="st1" d="M666.8-359.3c0.5,0,1-0.2,1.4-0.6l9-9c0.8-0.8,0.8-2,0-2.8c-0.8-0.8-2-0.8-2.8,0l-9,9c-0.8,0.8-0.8,2,0,2.8
					C665.8-359.5,666.3-359.3,666.8-359.3z"/>
				<path class="st1" d="M666.8-341.9c0.5,0,1-0.2,1.4-0.6l26.4-26.4c0.8-0.8,0.8-2,0-2.8c-0.8-0.8-2-0.8-2.8,0l-26.4,26.4
					c-0.8,0.8-0.8,2,0,2.8C665.8-342.1,666.3-341.9,666.8-341.9z"/>
				<path class="st1" d="M691.8-354.3l-9,9c-0.8,0.8-0.8,2,0,2.8c0.4,0.4,0.9,0.6,1.4,0.6c0.5,0,1-0.2,1.4-0.6l9-9
					c0.8-0.8,0.8-2,0-2.8C693.8-355.1,692.5-355.1,691.8-354.3z"/>
				<path class="st1" d="M641.4-347.5c1.6,0,2.8-1.3,2.8-2.8c0-1.6-1.3-2.8-2.8-2.8c-1.6,0-2.8,1.3-2.8,2.8
					C638.6-348.8,639.8-347.5,641.4-347.5z"/>
			</g>
			<path class="st1" d="M497.5-196.2l-13,13c-0.8,0.8-2,0.8-2.8,0l-4.8-4.8L445-156.2c-0.8,0.8-2,0.8-2.8,0l-50.8-50.8
				c-0.8-0.8-0.8-2,0-2.8l31.8-31.8l-4.8-4.8c-0.8-0.8-0.8-2,0-2.8l13-13c0.8-0.8,2-0.8,2.8,0l20.2,20.2c-0.3-0.7-0.6-1.3-0.8-1.9
				c-1-2.9-0.9-5.6,0.5-7.8c1.2-1.9,3.2-3.2,5.4-3.4c1.8-0.2,3.6,0.5,5.1,2c1.8,1.8,2.9,4.5,3,7.4c0.1,3.3-0.7,6.6-1.4,9.1
				c4.2-1.4,10.7-3.2,16.2-3.2c4.8,0,7.6,1.8,9.1,3.4c2.4,2.4,3.5,6.1,2.7,9.3c-0.6,2.3-2,4.2-4.2,5.4c-2.2,1.2-6,2.3-11.8,0.5
				c-1.7-0.5-3.5-1.4-5.4-2.5l24.9,24.9C498.3-198.2,498.3-197,497.5-196.2z M466.7-232.8c3.2,2.5,8.7,6.5,12.5,7.6
				c3.5,1.1,6.6,1,8.7-0.2c1.2-0.7,2-1.7,2.3-2.9c0.4-1.4,0.1-3.8-1.7-5.6c-1.4-1.4-3.6-2.2-6.3-2.2
				C477.1-236,470.6-234.1,466.7-232.8z M462.1-237.5c0.7-2.2,1.5-5.4,1.4-8.4c-0.1-1.8-0.7-3.6-1.9-4.7c-0.6-0.6-1.3-1-1.8-0.9
				c-0.7,0.1-1.8,0.5-2.4,1.6c-0.7,1.1-0.7,2.6-0.1,4.3C458.3-242.7,460.4-239.6,462.1-237.5z M431.7-199.4l-22.3-22.3
				c-0.1-0.1-0.2-0.2-0.3-0.3l-13.6,13.6l22.6,22.6L431.7-199.4z M448.6-216.3L426-238.9l-14.1,14.1c0.1,0.1,0.2,0.2,0.3,0.3
				l22.3,22.3L448.6-216.3z M457.2-174c-0.1-0.1-0.2-0.2-0.3-0.3l-22.3-22.3L421-183l22.6,22.6L457.2-174z M474-190.9l-22.6-22.6
				l-14.1,14.1l22.3,22.3c0.1,0.1,0.2,0.2,0.3,0.3L474-190.9z M493.3-197.6l-60.5-60.5L422.6-248l60.5,60.5L493.3-197.6z"/>
			<g>
				<path class="st1" d="M665.7-263.2c0-4.4,3.6-7.9,7.9-7.9s7.9,3.6,7.9,7.9c0,4.4-3.6,7.9-7.9,7.9S665.7-258.8,665.7-263.2z
					 M670.7-263.2c0,1.6,1.3,2.9,2.9,2.9c1.6,0,2.9-1.3,2.9-2.9c0-1.6-1.3-2.9-2.9-2.9C672-266.1,670.7-264.8,670.7-263.2z"/>
				<path class="st1" d="M691-230.5c0,4.4-3.6,7.9-7.9,7.9c0,0,0,0,0,0c-4.4,0-7.9-3.6-7.9-7.9c0-4.4,3.6-7.9,7.9-7.9
					C687.4-238.4,691-234.9,691-230.5z M686-230.5c0-1.6-1.3-2.9-2.9-2.9c-1.6,0-2.9,1.3-2.9,2.9c0,1.6,1.3,2.9,2.9,2.9
					C684.7-227.6,686-228.9,686-230.5z"/>
				<path class="st1" d="M697.7-269.8l-42.4,42.4c-1,1-1,2.6,0,3.5c0.5,0.5,1.1,0.7,1.8,0.7c0.6,0,1.3-0.2,1.8-0.7l42.4-42.4
					c1-1,1-2.6,0-3.5C700.3-270.8,698.7-270.8,697.7-269.8z"/>
				<path class="st1" d="M719.2-246.9c0,22.9-18.6,41.5-41.5,41.5s-41.5-18.6-41.5-41.5s18.6-41.5,41.5-41.5
					S719.2-269.7,719.2-246.9z M715.2-246.9c0-20.7-16.8-37.5-37.5-37.5c-20.7,0-37.5,16.8-37.5,37.5s16.8,37.5,37.5,37.5
					C698.4-209.4,715.2-226.2,715.2-246.9z"/>
			</g>
			<g>
				<path class="st1" d="M571.7-214.8c0.6,0.1,1.1,0.4,1.5,0.9l25.2,36.6c0.3,0.5,0.4,1,0.3,1.5l23.5,23.5c0.8,0.8,0.8,2,0,2.8
					l-46.9,46.9c-0.8,0.8-2,0.8-2.8,0l-24.5-24.5l-36.5-25.1c-0.5-0.3-0.8-0.9-0.9-1.5c-0.1-0.6,0.2-1.2,0.6-1.6l59-59
					C570.5-214.6,571.1-214.8,571.7-214.8z M596.1-172.7L552-128.6l21.8,21.8l44.1-44.1L596.1-172.7z M571.2-209.7l-55.6,55.6
					l33.3,22.9l45.2-45.2L571.2-209.7z"/>
				
					<rect x="559.3" y="-129" transform="matrix(0.7071 -0.7071 0.7071 0.7071 254.0266 359.5802)" class="st1" width="3.5" height="4.2"/>
				
					<rect x="564.6" y="-134.2" transform="matrix(0.707 -0.7072 0.7072 0.707 259.3955 361.819)" class="st1" width="3.5" height="4.2"/>
				
					<rect x="569.9" y="-139.5" transform="matrix(0.707 -0.7072 0.7072 0.707 264.6931 364.0129)" class="st1" width="3.5" height="4.2"/>
				
					<rect x="575.2" y="-144.8" transform="matrix(0.7069 -0.7073 0.7073 0.7069 270.0561 366.2462)" class="st1" width="3.5" height="4.2"/>
				
					<rect x="580.5" y="-150.1" transform="matrix(0.7072 -0.707 0.707 0.7072 275.1111 368.2958)" class="st1" width="3.5" height="4.2"/>
				
					<rect x="585.8" y="-155.4" transform="matrix(0.7072 -0.707 0.707 0.7072 280.4042 370.489)" class="st1" width="3.5" height="4.2"/>
				
					<rect x="591.1" y="-160.7" transform="matrix(0.7072 -0.707 0.707 0.7072 285.7066 372.687)" class="st1" width="3.5" height="4.2"/>
				
					<rect x="596.4" y="-166" transform="matrix(0.7071 -0.7071 0.7071 0.7071 291.0901 374.9319)" class="st1" width="3.5" height="4.2"/>
				
					<rect x="563.4" y="-124.9" transform="matrix(0.7071 -0.7071 0.7071 0.7071 252.3309 363.6476)" class="st1" width="3.5" height="4.2"/>
				
					<rect x="568.7" y="-130.2" transform="matrix(0.7072 -0.707 0.707 0.7072 257.5499 365.7931)" class="st1" width="3.5" height="4.2"/>
				
					<rect x="574" y="-135.5" transform="matrix(0.7072 -0.707 0.707 0.7072 262.8356 367.9812)" class="st1" width="3.5" height="4.2"/>
				
					<rect x="579.3" y="-140.8" transform="matrix(0.7071 -0.7071 0.7071 0.7071 268.2154 370.2274)" class="st1" width="3.5" height="4.2"/>
				
					<rect x="584.6" y="-146.1" transform="matrix(0.7071 -0.7071 0.7071 0.7071 273.5015 372.4155)" class="st1" width="3.5" height="4.2"/>
				
					<rect x="589.9" y="-151.4" transform="matrix(0.707 -0.7072 0.7072 0.707 278.8844 374.6613)" class="st1" width="3.5" height="4.2"/>
				
					<rect x="595.2" y="-156.6" transform="matrix(0.7072 -0.707 0.707 0.7072 284.0202 376.7605)" class="st1" width="3.5" height="4.2"/>
				
					<rect x="567.5" y="-120.8" transform="matrix(0.7071 -0.7071 0.7071 0.7071 250.6522 367.7264)" class="st1" width="3.5" height="4.2"/>
				
					<rect x="572.8" y="-126.1" transform="matrix(0.7069 -0.7073 0.7073 0.7069 256.1042 370.0206)" class="st1" width="3.5" height="4.2"/>
				
					<rect x="578.1" y="-131.4" transform="matrix(0.707 -0.7072 0.7072 0.707 261.3176 372.1603)" class="st1" width="3.5" height="4.2"/>
				
					<rect x="583.4" y="-136.7" transform="matrix(0.7071 -0.7071 0.7071 0.7071 266.5279 374.2996)" class="st1" width="3.5" height="4.2"/>
				
					<rect x="588.7" y="-142" transform="matrix(0.707 -0.7072 0.7072 0.707 271.9095 376.5465)" class="st1" width="3.5" height="4.2"/>
				
					<rect x="593.9" y="-147.3" transform="matrix(0.7072 -0.707 0.707 0.7072 277.0287 378.6323)" class="st1" width="3.5" height="4.2"/>
				<polygon class="st1" points="602.5,-162.5 599.5,-159.6 603.5,-155.5 598.3,-150.2 600.7,-147.7 609,-156 				"/>
				
					<rect x="571.5" y="-116.7" transform="matrix(0.7071 -0.7071 0.7071 0.7071 248.9573 371.7938)" class="st1" width="3.5" height="4.2"/>
				
					<rect x="584.8" y="-141.2" transform="matrix(0.7071 -0.7071 0.7071 0.7071 262.1946 377.2766)" class="st1" width="3.5" height="26.7"/>
				
					<rect x="598" y="-143.2" transform="matrix(0.7072 -0.707 0.707 0.7072 275.3426 382.7047)" class="st1" width="3.5" height="4.2"/>
				
					<rect x="603.3" y="-148.5" transform="matrix(0.7072 -0.707 0.707 0.7072 280.6362 384.8979)" class="st1" width="3.5" height="4.2"/>
				
					<rect x="608.6" y="-153.8" transform="matrix(0.7071 -0.7071 0.7071 0.7071 286.0197 387.1456)" class="st1" width="3.5" height="4.2"/>
				<path class="st1" d="M543.1-152.9c0.3-0.3,0.4-0.6,0.4-1.1v-16.3c0-0.8-0.7-1.5-1.5-1.5c-0.8,0-1.5,0.7-1.5,1.5v16.3
					c0,0.8,0.7,1.5,1.5,1.5C542.5-152.5,542.9-152.7,543.1-152.9z"/>
				<path class="st1" d="M572.7-160.8c0.4,0,0.8-0.2,1.1-0.4c0.3-0.3,0.4-0.6,0.4-1.1v-16.3c0-0.8-0.7-1.5-1.5-1.5
					c-0.8,0-1.5,0.7-1.5,1.5v16.3C571.2-161.4,571.9-160.8,572.7-160.8z"/>
				<path class="st1" d="M557.4-148.5c0.4,0,0.8-0.2,1.1-0.4c0.3-0.3,0.4-0.6,0.4-1.1l0-36.2c0-0.8-0.7-1.5-1.5-1.5
					c-0.8,0-1.5,0.7-1.5,1.5l0,36.2C555.9-149.2,556.6-148.5,557.4-148.5z"/>
			</g>
			<path class="st1" d="M436.3-99.2c-0.4,0.9-1.5,2.5-4.8,2.5h-85.1c-3.3,0-4.4-1.6-4.8-2.5c-0.4-1-0.6-3,2.2-5.5l38.9-35.2
				c1.2-1.1,2.7-1.8,4.3-2.2v-3.7c0-1.1,0.9-2,2-2c4.2,0,7.6-3.4,7.6-7.6c0-4.2-3.4-7.6-7.6-7.6c-4.2,0-7.6,3.4-7.6,7.6
				c0,1.1-0.9,2-2,2c-1.1,0-2-0.9-2-2c0-6.4,5.2-11.6,11.6-11.6c6.4,0,11.6,5.2,11.6,11.6c0,5.7-4.1,10.5-9.6,11.4v1.8
				c1.6,0.3,3.1,1.1,4.3,2.2l38.9,35.2C436.9-102.1,436.7-100.1,436.3-99.2z M432.3-100.7c-0.2-0.2-0.4-0.6-0.9-0.9l-38.9-35.2
				c-0.9-0.9-2.2-1.3-3.6-1.3c-1.4,0-2.7,0.5-3.6,1.3l-38.9,35.2c-0.4,0.4-0.7,0.7-0.9,0.9c0.2,0,0.5,0.1,0.8,0.1h85.1
				C431.9-100.7,432.1-100.7,432.3-100.7z"/>
		</g>
		<g>
			<g>
				<path class="st1" d="M165.7-528.6c-0.8-0.8-2-0.8-2.8,0c-0.8,0.8-0.8,2,0,2.8c2.7,2.7,4.2,6.3,4.2,10.1c0,3.8-1.5,7.4-4.2,10.1
					c-0.8,0.8-0.8,2,0,2.8c0.4,0.4,0.9,0.6,1.4,0.6c0.5,0,1-0.2,1.4-0.6c3.5-3.5,5.4-8.1,5.4-12.9
					C171-520.6,169.1-525.2,165.7-528.6z"/>
				<path class="st1" d="M209.2-473.7c4,4,4,10.5,0,14.5c-1.9,1.9-4.5,3-7.2,3c-2.7,0-5.3-1.1-7.2-3c-0.1-0.1-0.2-0.2-0.2-0.3
					l-25-36c-4.7,3.9-10.6,6.1-16.8,6.1l0,0c-7,0-13.6-2.7-18.6-7.7c-5-5-7.7-11.6-7.7-18.6c0-7,2.7-13.6,7.7-18.6
					c5-5,11.5-7.7,18.6-7.7c7,0,13.6,2.7,18.6,7.7c5,5,7.7,11.5,7.7,18.6c0,6.2-2.1,12.1-6.1,16.8l36,25
					C209-473.8,209.1-473.8,209.2-473.7z M175-515.7c0-5.9-2.3-11.5-6.5-15.7c-4.2-4.2-9.8-6.5-15.7-6.5c-5.9,0-11.5,2.3-15.7,6.5
					c-4.2,4.2-6.5,9.8-6.5,15.7c0,5.9,2.3,11.5,6.5,15.7c4.2,4.2,9.8,6.5,15.7,6.5c5.9,0,11.5-2.3,15.7-6.5
					C172.6-504.2,175-509.7,175-515.7z M206.5-470.7l-28.7-19.9l19.9,28.7c1.2,1.1,2.7,1.7,4.3,1.7c1.7,0,3.2-0.6,4.4-1.8
					C208.7-464.4,208.8-468.3,206.5-470.7z"/>
			</g>
			<path class="st1" d="M106.8-424.3l-13,13c-0.8,0.8-2,0.8-2.8,0l-4.8-4.8l-31.8,31.8c-0.8,0.8-2,0.8-2.8,0L0.6-435.2
				c-0.8-0.8-0.8-2,0-2.8l31.8-31.8l-4.8-4.8c-0.8-0.8-0.8-2,0-2.8l13-13c0.8-0.8,2-0.8,2.8,0l20.2,20.2c-0.3-0.7-0.6-1.3-0.8-1.9
				c-1-2.9-0.9-5.6,0.5-7.8c1.2-1.9,3.2-3.2,5.4-3.4c1.8-0.2,3.6,0.5,5.1,2c1.8,1.8,2.9,4.5,3,7.4c0.1,3.3-0.7,6.6-1.4,9.1
				c4.2-1.4,10.7-3.2,16.2-3.2c4.8,0,7.6,1.8,9.1,3.4c2.4,2.4,3.5,6.1,2.7,9.3c-0.6,2.3-2,4.2-4.2,5.4c-2.2,1.2-6,2.3-11.8,0.5
				c-1.7-0.5-3.5-1.4-5.4-2.5l24.9,24.9C107.5-426.4,107.5-425.1,106.8-424.3z M76-461c3.2,2.5,8.7,6.5,12.5,7.6
				c3.5,1.1,6.6,1,8.7-0.2c1.2-0.7,2-1.7,2.3-2.9c0.4-1.4,0.1-3.8-1.7-5.6c-1.4-1.4-3.6-2.2-6.3-2.2C86.3-464.1,79.8-462.3,76-461z
				 M71.3-465.6c0.7-2.2,1.5-5.4,1.4-8.4c-0.1-1.8-0.7-3.6-1.9-4.7c-0.6-0.6-1.3-1-1.8-0.9c-0.7,0.1-1.8,0.5-2.4,1.6
				c-0.7,1.1-0.7,2.6-0.1,4.3C67.5-470.8,69.7-467.7,71.3-465.6z M41-427.5l-22.3-22.3c-0.1-0.1-0.2-0.2-0.3-0.3L4.8-436.6L27.4-414
				L41-427.5z M57.8-444.4L35.2-467l-14.1,14.1c0.1,0.1,0.2,0.2,0.3,0.3l22.3,22.3L57.8-444.4z M66.4-402.1
				c-0.1-0.1-0.2-0.2-0.3-0.3l-22.3-22.3l-13.5,13.5l22.6,22.6L66.4-402.1z M83.3-419l-22.6-22.6l-14.1,14.1l22.3,22.3
				c0.1,0.1,0.2,0.2,0.3,0.3L83.3-419z M102.5-425.7L42-486.3l-10.2,10.2l60.5,60.5L102.5-425.7z"/>
			<g>
				<path class="st1" d="M274.9-491.3c0-4.4,3.6-7.9,7.9-7.9s7.9,3.6,7.9,7.9c0,4.4-3.6,7.9-7.9,7.9S274.9-487,274.9-491.3z
					 M279.9-491.3c0,1.6,1.3,2.9,2.9,2.9c1.6,0,2.9-1.3,2.9-2.9c0-1.6-1.3-2.9-2.9-2.9C281.2-494.3,279.9-492.9,279.9-491.3z"/>
				<path class="st1" d="M300.2-458.6c0,4.4-3.6,7.9-7.9,7.9c0,0,0,0,0,0c-4.4,0-7.9-3.6-7.9-7.9c0-4.4,3.6-7.9,7.9-7.9
					C296.7-466.5,300.2-463,300.2-458.6z M295.2-458.6c0-1.6-1.3-2.9-2.9-2.9c-1.6,0-2.9,1.3-2.9,2.9c0,1.6,1.3,2.9,2.9,2.9
					C293.9-455.7,295.2-457,295.2-458.6z"/>
				<path class="st1" d="M307-497.9l-42.4,42.4c-1,1-1,2.6,0,3.5c0.5,0.5,1.1,0.7,1.8,0.7c0.6,0,1.3-0.2,1.8-0.7l42.4-42.4
					c1-1,1-2.6,0-3.5C309.5-498.9,308-498.9,307-497.9z"/>
				<path class="st1" d="M328.4-475c0,22.9-18.6,41.5-41.5,41.5c-22.9,0-41.5-18.6-41.5-41.5c0-22.9,18.6-41.5,41.5-41.5
					C309.8-516.4,328.4-497.8,328.4-475z M324.4-475c0-20.7-16.8-37.5-37.5-37.5c-20.7,0-37.5,16.8-37.5,37.5
					c0,20.7,16.8,37.5,37.5,37.5C307.6-437.5,324.4-454.3,324.4-475z"/>
			</g>
			<g>
				<path class="st1" d="M180.9-442.9c0.6,0.1,1.1,0.4,1.5,0.9l25.2,36.6c0.3,0.5,0.4,1,0.3,1.5l23.5,23.5c0.8,0.8,0.8,2,0,2.8
					l-46.9,46.9c-0.8,0.8-2,0.8-2.8,0l-24.5-24.5l-36.5-25.1c-0.5-0.3-0.8-0.9-0.9-1.5c-0.1-0.6,0.2-1.2,0.6-1.6l59-59
					C179.7-442.7,180.3-443,180.9-442.9z M205.3-400.8l-44.1,44.1L183-335l44.1-44.1L205.3-400.8z M180.5-437.8l-55.6,55.6
					l33.3,22.9l45.2-45.2L180.5-437.8z"/>
				
					<rect x="168.6" y="-357.1" transform="matrix(0.7071 -0.7071 0.7071 0.7071 300.8777 16.4578)" class="st1" width="3.5" height="4.2"/>
				
					<rect x="173.9" y="-362.4" transform="matrix(0.707 -0.7072 0.7072 0.707 306.2294 18.6307)" class="st1" width="3.5" height="4.2"/>
				
					<rect x="179.2" y="-367.7" transform="matrix(0.707 -0.7072 0.7072 0.707 311.5261 20.8238)" class="st1" width="3.5" height="4.2"/>
				
					<rect x="184.5" y="-373" transform="matrix(0.7069 -0.7073 0.7073 0.7069 316.8811 22.997)" class="st1" width="3.5" height="4.2"/>
				
					<rect x="189.8" y="-378.2" transform="matrix(0.7072 -0.707 0.707 0.7072 321.9832 25.2538)" class="st1" width="3.5" height="4.2"/>
				
					<rect x="195" y="-383.5" transform="matrix(0.7072 -0.707 0.707 0.7072 327.2763 27.4469)" class="st1" width="3.5" height="4.2"/>
				
					<rect x="200.3" y="-388.8" transform="matrix(0.7072 -0.707 0.707 0.7072 332.5771 29.6379)" class="st1" width="3.5" height="4.2"/>
				
					<rect x="205.6" y="-394.1" transform="matrix(0.7071 -0.7071 0.7071 0.7071 337.9413 31.8095)" class="st1" width="3.5" height="4.2"/>
				
					<rect x="172.6" y="-353" transform="matrix(0.7071 -0.7071 0.7071 0.7071 299.1841 20.5325)" class="st1" width="3.5" height="4.2"/>
				
					<rect x="177.9" y="-358.3" transform="matrix(0.7072 -0.707 0.707 0.7072 304.4213 22.7448)" class="st1" width="3.5" height="4.2"/>
				
					<rect x="183.2" y="-363.6" transform="matrix(0.7072 -0.707 0.707 0.7072 309.7086 24.9401)" class="st1" width="3.5" height="4.2"/>
				
					<rect x="188.5" y="-368.9" transform="matrix(0.7071 -0.7071 0.7071 0.7071 315.0685 27.1123)" class="st1" width="3.5" height="4.2"/>
				
					<rect x="193.8" y="-374.2" transform="matrix(0.7071 -0.7071 0.7071 0.7071 320.3632 29.3056)" class="st1" width="3.5" height="4.2"/>
				
					<rect x="199.1" y="-379.5" transform="matrix(0.707 -0.7072 0.7072 0.707 325.7199 31.4793)" class="st1" width="3.5" height="4.2"/>
				
					<rect x="204.4" y="-384.8" transform="matrix(0.7072 -0.707 0.707 0.7072 330.8907 33.7104)" class="st1" width="3.5" height="4.2"/>
				
					<rect x="176.7" y="-348.9" transform="matrix(0.7071 -0.7071 0.7071 0.7071 297.4972 24.606)" class="st1" width="3.5" height="4.2"/>
				
					<rect x="182" y="-354.2" transform="matrix(0.7069 -0.7073 0.7073 0.7069 302.9188 26.759)" class="st1" width="3.5" height="4.2"/>
				
					<rect x="187.3" y="-359.5" transform="matrix(0.707 -0.7072 0.7072 0.707 308.1523 28.972)" class="st1" width="3.5" height="4.2"/>
				
					<rect x="192.6" y="-364.8" transform="matrix(0.7071 -0.7071 0.7071 0.7071 313.3879 31.1827)" class="st1" width="3.5" height="4.2"/>
				
					<rect x="197.9" y="-370.1" transform="matrix(0.707 -0.7072 0.7072 0.707 318.7366 33.3601)" class="st1" width="3.5" height="4.2"/>
				
					<rect x="203.2" y="-375.4" transform="matrix(0.7072 -0.707 0.707 0.7072 323.902 35.5914)" class="st1" width="3.5" height="4.2"/>
				<polygon class="st1" points="211.7,-390.7 208.7,-387.7 212.8,-383.6 207.5,-378.3 209.9,-375.9 218.2,-384.1 				"/>
				
					<rect x="180.8" y="-344.8" transform="matrix(0.7071 -0.7071 0.7071 0.7071 295.8104 28.6787)" class="st1" width="3.5" height="4.2"/>
				
					<rect x="194" y="-369.3" transform="matrix(0.7071 -0.7071 0.7071 0.7071 309.0464 34.1607)" class="st1" width="3.5" height="26.7"/>
				
					<rect x="207.3" y="-371.3" transform="matrix(0.7072 -0.707 0.707 0.7072 322.2149 39.6629)" class="st1" width="3.5" height="4.2"/>
				
					<rect x="212.6" y="-376.6" transform="matrix(0.7072 -0.707 0.707 0.7072 327.5016 41.858)" class="st1" width="3.5" height="4.2"/>
				
					<rect x="217.9" y="-381.9" transform="matrix(0.7071 -0.7071 0.7071 0.7071 332.8735 44.0303)" class="st1" width="3.5" height="4.2"/>
				<path class="st1" d="M152.4-381c0.3-0.3,0.4-0.6,0.4-1.1v-16.3c0-0.8-0.7-1.5-1.5-1.5c-0.8,0-1.5,0.7-1.5,1.5v16.3
					c0,0.8,0.7,1.5,1.5,1.5C151.7-380.6,152.1-380.8,152.4-381z"/>
				<path class="st1" d="M182-388.9c0.4,0,0.8-0.2,1.1-0.4c0.3-0.3,0.4-0.6,0.4-1.1v-16.3c0-0.8-0.7-1.5-1.5-1.5
					c-0.8,0-1.5,0.7-1.5,1.5v16.3C180.5-389.5,181.1-388.9,182-388.9z"/>
				<path class="st1" d="M166.6-376.6c0.4,0,0.8-0.2,1.1-0.4c0.3-0.3,0.4-0.6,0.4-1.1l0-36.2c0-0.8-0.7-1.5-1.5-1.5
					c-0.8,0-1.5,0.7-1.5,1.5l0,36.2C165.1-377.3,165.8-376.6,166.6-376.6z"/>
			</g>
		</g>
	</g>
</pattern>
<g id="Layer_1">
	<rect class="st2" width="1200" height="1200"/>
	<rect x="0" class="st3" width="1200" height="1200"/>
</g>
<g id="Layer_2">
</g>
</svg>
